/* XPM */
static char *_9633d9cceef4e60bd072cd05ecbaf32[] = {
/* columns rows colors chars-per-pixel */
"64 64 31 1 ",
"  c #485E25",
". c #4C6426",
"X c #4E6726",
"o c #4E6826",
"O c #506826",
"+ c #516B26",
"@ c #536D27",
"# c #546E27",
"$ c #567127",
"% c #577228",
"& c #587328",
"* c #587428",
"= c #5B7629",
"- c #5B7828",
"; c #5C7929",
": c #5F7D29",
"> c #607D2A",
", c #62802A",
"< c #64822A",
"1 c #65832B",
"2 c #64842B",
"3 c #65852B",
"4 c #67862B",
"5 c #68872B",
"6 c #68892B",
"7 c #68882C",
"8 c #6A8B2C",
"9 c #6B8C2C",
"0 c #6D8E2C",
"q c #6E902D",
"w c #70922D",
/* pixels */
"wwwwwwwwwwwwwwq09999999999999984>>>>>>>>>>>>>>>,8888888888888888",
"wwwwwwwwwwwwwwq09999999999999984>>>>>>>>>>>>>>>,8888888888888888",
"wwwwwwwwwwwwwwq09999999999999984>>>>>>>>>>>>>>>,8888888888888888",
"wwwwwwwwwwwwwwq09999999999999984>>>>>>>>>>>>>>>,8888888888888888",
"wwwwwwwwwwwwwwq09999999999999984,>>>>>>>>>>>>>><8888888888888888",
"wwwwwwwwwwwwwwq09999999999999984,>>>>>>>>>>>>>><8888888888888888",
"wwwwwwwwwwwwwwq09999999999999984,>>>>>>>>>>>>>><8888888888888888",
"wwwwwwwwwwwwwwq09999999999999984,>>>>>>>>>>>>>><8888888888888888",
"wwwwwwwwwwwwwwq09999999999999984>>>>>>>>>>>>>>>,8888888888888888",
"wwwwwwwwwwwwwwq09999999999999984>>>>>>>>>>>>>>>,8888888888888888",
"wwwwwwwwwwwwwwq09999999999999984>>>>>>>>>>>>>>>,8888888888888888",
"wwwwwwwwwwwwwwq09999999999999984>>>>>>>>>>>>>>>,8888888888888888",
"wwwwwwwwwwwwwwq09999999999999984>>>>>>>>>>>>>>>,8888888888888888",
"wwwwwwwwwwwwwwq09999999899999984>>>>>>>>>>>>>>>,8888888888888888",
"wwwwwwwwwwwwwwq09999999999999984>>>>>>>>>>>>>>>,5888888888888888",
"qqqqqqqqqqqqqqq9888888888888886<;;;;;;;;;;;;;;;:4888888888888888",
"999999999999999644444444444444<;@++++++++++++++$,444<<44<<444<<<",
"9999999999999985<<<<<<<<<<<<<<<=+XXXXXXXXXXXXXX@>444<<<4<4444<<<",
"9999999999999985<<<<<<<<<<<<<<<=+XXXXXXXXXXXXXX@>444<<44<<4444<<",
"9999999999999985<<<<<<<<<<<<<<<=+XXXXXXXXXXXXXX@>4444<44<<444444",
"9999999999999985<<<<<<<<<<<<<<<=+XXXXXXXXXXXXXX@>4444444<4444444",
"9999999999999985<<<<<<<<<<<<<<<=+XXXXXXXXXXXXXX@>,44444444444444",
"9999999999999985<<<<<<<<<<<<<<<=+XXXXXXXXXXXXXX@>444<<<<444444<<",
"9999999999999985<<<<<<<<<<<<<<<=+XXXXXXXXXXXXXX@>444<<<<4444444<",
"9999999999999985<<<<<<<<<<<<<<<=+XXXXXXXXXXXXXX@>4444444<<4444<<",
"9999999999999985<<<<<<<<<<<<<<<=+XXXXXXXXXXXXXX@>44444<4<<4444<<",
"9999999999999985<<<<<4<<<<<<<<<=+XXXXXXXXXXXXXX@>444<<<<<<44444<",
"9999999999999985<4<<<<<<<<<<<<<=+XXXXXXXXXXXXXX@>,444<<<<4444444",
"9999999999999985<<<<<<4<<<<<<<<=+XXXXXXXXXXXXXX@>444444444444444",
"9999999999999985<<<<<<<<<<<<<<<=+XXXXXXXXXXXXXX@>44444444444<444",
"9999999999999985<<<<<<<<<<<<<<<=+XXXXXXXXXXXXXX@><<<<44444<<<<44",
"8888888888888884<,,,,,,,,,,,,,,=+ooooooooooooo+#:,>>>,,,,>>,,>>>",
"444444444444444:-==============================&###@@@###@@#####",
"4444444444444<,;%%%%%%%%%%%%%%%=;::::::::::::::=XXXXXXXXXXXXXXXX",
"444444<<444444,;%%%%%%%%%%%%%%%=:>>>>>>>>>>>:>:=XXXXXXXXXXX.XXX.",
"44444<<<<44444<;%%%%%%%%%%%%%%%=:>>>>>>>>>>>>>:=XXXXXXXXXXXXXXX.",
"444444<<444444<;%%%%%%%%%%%%%%%=:>>>>>>>>>>>>>:=X..XXX.XXXXXXX..",
"44<<44<4444444<;%%%%%%%%%%%%%%%=:>>>>>>>>>>>>>:=XX..XXX.XXXX.X.X",
"4<<<4444<<4444<;%%%%%%%%%%%%%%%=:>>>>>>>>>>>>>:=XXXXXX..X.XXXXXX",
"<<<<4444<<4444,;%%%%%%%%%%%%%%%=:>>>>>>>>>>>>>:=XXXXXX.X..XXXXXX",
"4444<<<4<<444<,;%%%%%%%%%%%%%%%=:>>>>>>>>>>>>>:=XX..XXXXXXXXXX.X",
"4444<<<4<<4444,;%%%%%%%%%%%%%%%=:>>>>>>>>>>>>>:=XX..XXXXXXX.X..X",
"4<44<<44444444,;%%%%%%%%%%%%%%%=:>>>>>>>>>>>>>:=XXXXXXXXXX..XXXX",
"<<444444444444,;%%%%%%%%%%%%%%%=:>>>>>>>>>>>>>:=XXXXXXXX..XXXXXX",
"<<<44444444444<;%%%%%%%%%%%%%%%=:>>>>>>>>>>>>>:=XXXXXX.X.XXXXXXX",
"<<444444444444<;%%%%%%%%%%%%%%%=:>>>>>>>>>>>>>:=XXXXX..XXXXXXXXX",
"444444<444444<<;%%%%%%%%%%%%%%%=:>>>>>>>>>>>>>:=XX.XXXXXXXXXXXXX",
"<<<<,,,,<,<<<,<;%%%%%%%%%%%%%%%=;::::::::::::::=X..XXXXXX...XXXX",
";;;;;;;;---;;;-=%%%%%%%%%%%%%%%=--------------;$XXXXX.XXXXXXXXX.",
"XXXXXXXXXXXXXXo#================$$$$$$$$$$$$$$$@X               ",
"XXXXXXXXXX.XXXX@================$$$$$$$$$$$$$$#+X               ",
"XXXXXXXXXXX.XXX@================$$$$$$$$$$$$$$#+X               ",
"XXXXXXXX.XXXXXX@================#$$$$$$$$$$$$$#+X               ",
"XXXXXXXX..XXXXX@==-=============$$$$$$$$$$$$$$#+X               ",
"X...XXXX..XXXXX@================$$$$$$$$$$$$$$#+X               ",
"...XXXXXXXXXXXX@================$$$$$$$$$$$$$$#+X               ",
"XXXX..XXXXX.XXX@===========-====$$$$$$$##$$$$$#+X               ",
"XXXX.XXXXX..XXX@===========-====$$$$$$$$$$$$$$#+X               ",
"XXX.XXXXXXXXXXX@================$$$$$$$$$$$$$$#+                ",
"XX..XXXXXXXXXXX@=====--=========$##$$$$$$$$$$$#+                ",
"XXXXX...X...XXX@================$$$$$$#$$#$$$$#+                ",
"XXXX...X...XXXX@================$$#$$$$$$$$$$##+X               ",
"X.XXXXXXXXXXXXX@=========--=====$$$$$$$$$$$$$$#+X               ",
"..XXXXXXXXXXXXX@================$$$$$$$$$$$$$$#+X               "
};
