/* XPM */
static char *a2f9798f07294b69917d982e2d16a7e0[] = {
/* columns rows colors chars-per-pixel */
"64 64 85 1 ",
"  c #8D7F5A",
". c #8E805A",
"X c #90825D",
"o c #97885F",
"O c #9E8B5E",
"+ c #A18D5F",
"@ c #A4905F",
"# c #9B8760",
"$ c #9D8B62",
"% c #9F9261",
"& c #A18C62",
"* c #A59365",
"= c #A99566",
"- c #A69867",
"; c #AB9967",
": c #A59369",
"> c #AC966A",
", c #A79868",
"< c #AD9C6B",
"1 c #B19E6D",
"2 c #AFA16E",
"3 c #B2A16E",
"4 c #BAA76F",
"5 c #BBAA6F",
"6 c #AFA271",
"7 c #B5A572",
"8 c #B9A773",
"9 c #B6A874",
"0 c #BBAA73",
"q c #BCA67C",
"w c #B5A878",
"e c #BDAD7A",
"r c #BEB176",
"t c #BFB27A",
"y c #C1AC76",
"u c #C2AE79",
"i c #C4B476",
"p c #C8B677",
"a c #C7B877",
"s c #C6B67B",
"d c #C9B77A",
"f c #C6B87B",
"g c #CAB97D",
"h c #D0BE7F",
"j c #C7B681",
"k c #C7BC80",
"l c #CCBC83",
"z c #CEBF88",
"x c #D2BE83",
"c c #D8BF86",
"v c #D4BF88",
"b c #CBC387",
"n c #CDC184",
"m c #CDC185",
"M c #CDC285",
"N c #CEC289",
"B c #D3C082",
"V c #D5C183",
"C c #D1C285",
"Z c #D6C287",
"A c #D7C487",
"S c #D8C286",
"D c #D8C487",
"F c #D0C488",
"G c #D3C489",
"H c #D4C689",
"J c #D5C78B",
"K c #D5C68C",
"L c #D7C78C",
"P c #D9C78B",
"I c #D8C78C",
"U c #D5CB8B",
"Y c #D4C98C",
"T c #D5C98D",
"R c #D7CC8F",
"E c #D8CA8B",
"W c #D8CA8D",
"Q c #D9CB8E",
"! c #D8CC8C",
"~ c #D5C690",
"^ c #D7CB90",
"/ c #D7CC90",
"( c #D8CC90",
") c #D9CC91",
"_ c #DACC92",
/* pixels */
"Fmmlr00eeeeeyei0ie0immbmmmmmdggdy000lmmmmmmmbbmmbmbmmmmmmmzl333;",
"T(/TgsssffsffffsfffgQ//(((QQADSZgfdgT((((RTR///R/(TRRR((((QLe003",
"T(TTffsffffffsssdfggTTRT^^TQZZZxgfdgLTTTTTTTTTTTTTTTTTTTTTTLe007",
"TTRTlgggdgggsisidgggPEUUTTUJBxBxgfsgFTTTTLLTQQITLLLLQILTTTQJe003",
"TTTTJQTLZZCl000exZZZZZZCgfagddddssssfffffgggCZZxggggCZZJUTQJ0003",
"TTTTQQRQZZZB09w0xVVZZZZBddsdssasssssssfssasdBZZxddddxZZAU!EA0003",
"TTTTQUUQZZZC0990xZZZZZZVdddddsassfssfffssssdBZZVddsdBZZAEEUJ0003",
"TTTTQQREBxCze00exZVVBBBxddggggggssssggggggggVZZxgdagCZZAEQUJ0003",
"TTTTQTUJgddffsssddddddddxZBZZZZx097eFTQTTQEJZZSZEUUUUEEEEQTJ0003",
"TTRTQQQJddsffssssssssssdCZZZZZZx070eFTQQQQQQZZSZQRURUUQQETTJ0003",
"RRRTQQQEgsssssgssssssgddZZZZZDSv099eFRTRRRQQZZZZQQRRRRRRQQTL0003",
"mzmmCCFzsyeesssssssssssslzllxlll8790lNNmmNzzllllzmmmNNNmNNNl077<",
"*&&&&&**++&&========================---=%*&*++++@**+&&O%=,;;==:$",
"&&$$$$$$$$$&:::::::::::::::::::*:*=:::,:$$$$$$O$$&$$$$$$::::*::$",
"&&OOOOOO$$$$*:*::*:***::::::::::*:*:::**$$$$$$$$&&&&$&$$*:****=#",
">===********;;;;;;;;<<<<<<<<==;;<<<<;;;;****&&&&========<<111<<*",
"LLLFfsfsssssfsssffsfLLL~LLLF0990FFFFfsfsssfs0999lxxxxvxxxCxvIL~z",
"QRRTgsfffssssssssssdQQQQQTTL000eJUUUgssdpssf0990xZVVVVVZZZZJQQQm",
"TTRTgssssfgsspdsssddEQQQQTTLe00eTR!Ugssdpdsf0990CZVZZZZZZSZZQQ(F",
"FFFFfsssssssggggggggPEELQTTL000eFUUAgdgggggdueeuxVxxxxxBBVBZJJLz",
"sffgssss0080xZxVZZZVZVZFTTTLe000xCCZZZZxZZZZvZZCgdddddddddddfsfe",
"ffssssgs0890xZZVZZVVZZZFQTTL0800xSZZZZZZZVZZZZZxdsassssssassssge",
"fdddssas0780xZZZZZZZVVZJQTTLe080xSSVSZZZvSSVZZZCgaaaassssassssfe",
"gggggllftrssCZZZZZZZZZZFTTTLe080xxxxxxxxxlghZZZZxlgfkllllgggggls",
"TTTTTTTTTTTLJZZZQQQQEUUTT/^Le000ddddddds088eLQQQQTTTTTTTTTTTTTQm",
"TR/TT((TTRTQZZVCEUUURRRQTRTLe000sdaapsss0090LQQQQTTTTTRTTRRRTT/m",
"T//^TQQTT(QQAAVAEQQQQQQ(TT(Le000saadddss0990L(QQ(((Q(/RR/RRRTT/N",
"zzzzzzzzlllljffflllllllllllj8337eeeeeee03337flllllllllllzzzzzzzs",
"-**====*OOOOOOOOOOOOOOOOOOOO***========*OOOOOOOOOOOOOOO+*======O",
":::::*:*$$$$$$$$$$$$$$$$$$$$*:::::::::**$$$$$$$$$$$$$$$&*:::::>$",
":::::**&$$$$$$$$$$$$$$$$$$$$****:::::::*$$$$$$$$$$$$$$#$&::::::$",
"67327377<<<<<<<<<<<<=*=*==;;333333333311;;;;<<<<<<<<<<<<3737<<;*",
"^TTTTTT(QQQQQQQQQQTL0790sssfURTRRRTTZZZZZZZZZZZZIQTTQQQQ(TTJe009",
"^TRTTTT/RQRRRRR!RRTT0990sssfUQEEEQ!UZZZZZZZZVZZZQQ!!RRRTTTTLe00q",
"^RRRRT^TQQ!RRRR!R!RL0790sssfJQEEER!UZZZZVZZZZZZZQQ!UQRRT^TTLe00q",
"LFFFFFFFFJJJJJJJJTTNstssggggAPPEAFFJxxxxxxllllllQ(RUJJFFFFFCe00q",
"ffaaaafaaaaaaaaaaaakL^TIZZZVZVVBdaafsdddddds078eLQQUdasssass000q",
"ffsassssssssdsspssffTTQQZVZZVZZxdfsffddddssf0090LTQEdssssass500q",
"ffssspddddddddspsssfTTQTCZZZVZZxdfsffdddddds4470JQEEdpsddddd000q",
"zzllggggggggggggglllTTRUmxxBxxxxdffffdddggggiiysJJPDgggggggg0009",
"QQ(QZZZZZZZZZZZAEQQTTRTJdppddsssssfddddgBZVZZZZZZZVVZZZZZZZx0003",
"TTQQZZZZZZZZZSZZQQRTTRTQgsssssssssssssdgZZZZZZZZZZZZZZZZZZZx0403",
"RR(QJZDDDZZZSccJQRRRRRQQgdssddsdggsssssgZZZZZZZZZDDDDDDZZSPx0403",
"tssfyyyyuuuuuuuissssssss4444000000000000ssssuusuyyyyuuyyyyy0313;",
"****OOO+*====*=*++OOOOOOOOOO*====*======*=*=****++OOOOOOOOOO***O",
",:::$$$$::::::::&$$$$$$$&$$$::::::::::::::::::::&$$$$$$$$$$$**=$",
":***$OO$==******OOO$$OOOOOO$***:*=***********=:*&OOOOO$O$$O$***#",
"99977333997777977733<<<<3777<<<<1<11<<<<<3313233111<333627767992",
"^^^^/(///QRQ^^///((TlddfT((L0000fffs0990ffgsdffdvDDZ(Q/(///^^^(N",
"TTTUQRRRRURUUUTRRRTUgssaURTJ0000ssss0800sddsddddvvvZE!RRRRRTRUQm",
"UUQUQQQ((Q(QTTTTRRRTfsifTRTL0000ssss0880sdppapddZZAZQQRTQRRRQEQm",
"AJPPBCCCzlllTTTTRR(TmmlmTRTLe000llxldssslgggdsddgxhxmmmmCmCCJUUl",
"BZZBssss0779FRTTTTTTT((^QTTLe00eLQ(QZZZZSDSZdddddddppiissssgxCZg",
"VZZBdsss0990TTTTTTTT^TTRTTTLe080LQQQZZZZDcZZdddddddsssaddgddZZZg",
"ZZZxdsfs0970L((QR(QTQT/TQRTL0080LTQQZZSZZZVZddddddssaasssssdZZZd",
"JJJJmlzlrreszFCCmmCCTTRRTTTLe000LTTQJASZlgghggggxmmmmmmmzlmCJJJl",
"TTTRTRTTfsfsfdsdffggLRRTTTTL0080LT/RTQEUassdxZZAUTTTTTTT^^/TTR(m",
"TRRRRRTTfsfsddddfssgUTTT^TTL0980TRTTTUUTassdxZVZETTTTTTTTTTRRRRm",
"^TQ///TTgassdddddddl((/(((QLe000T((QQQQTgssgZJZPQ((^(((((((QTT(N",
"uuusssst977408887777eeeesssu1<<<etsssssu0778880099wweeeeeeeesss9",
"*********::*>>>=OO$$$$OO>;;>&&OO************OO$o.  .oOOO$OOO&**O",
":::**:::::::>>>>&$$$$$$&><<>&$$&*::::::::::*OO$#..XX#$$$$$$$*::$",
"************<<<=&OOOOOO+==;=&OO&********==**OO$O...XoOOO$OOO*=*$",
"97771111<<<11111=>;;<11190991111<<<1777777771377<<<<<223771<;<;*"
};
