/* XPM */
static char *_a605478eef5447484175b32e90263b9[] = {
/* columns rows colors chars-per-pixel */
"64 64 212 2 ",
"   c #030303",
".  c #040B06",
"X  c #0A0B06",
"o  c #070B08",
"O  c #0B0B0B",
"+  c #05140A",
"@  c #0D120A",
"#  c #0B190B",
"$  c #111307",
"%  c #11140C",
"&  c #151A0B",
"*  c #181F0D",
"=  c #071B10",
"-  c #141413",
";  c #161B13",
":  c #191A16",
">  c #1C1C1B",
",  c #0B210E",
"<  c #1C230D",
"1  c #0B2B14",
"2  c #0A2D18",
"3  c #132410",
"4  c #1B2212",
"5  c #112E13",
"6  c #1E2814",
"7  c #1F201E",
"8  c #0D3416",
"9  c #0C3B1B",
"0  c #163819",
"q  c #22260F",
"w  c #212B0E",
"e  c #222714",
"r  c #232C12",
"t  c #292F11",
"y  c #20211E",
"u  c #232B1A",
"i  c #2A3314",
"p  c #2E3C14",
"a  c #29361A",
"s  c #363E18",
"d  c #143E21",
"f  c #232323",
"g  c #252925",
"h  c #282827",
"j  c #2B2B2B",
"k  c #313A25",
"l  c #32322F",
"z  c #343434",
"x  c #3A3B37",
"c  c #3B3B3B",
"v  c #17441D",
"b  c #324216",
"n  c #35451B",
"m  c #3B481A",
"M  c #3B4D1C",
"N  c #3E511C",
"B  c #0D4B22",
"V  c #154D22",
"C  c #194823",
"Z  c #165626",
"A  c #364325",
"S  c #394A24",
"D  c #205022",
"F  c #3D532A",
"G  c #17662E",
"H  c #116E32",
"J  c #187535",
"K  c #226C2D",
"L  c #36622A",
"P  c #377C33",
"I  c #434A1A",
"U  c #465B1D",
"Y  c #455A1F",
"T  c #4B621F",
"R  c #414F2E",
"E  c #415620",
"W  c #465C22",
"Q  c #485E25",
"!  c #435B2D",
"~  c #414836",
"^  c #495739",
"/  c #4A6427",
"(  c #4C6426",
")  c #4C612A",
"_  c #556124",
"`  c #536D26",
"'  c #586A28",
"]  c #47732F",
"[  c #557027",
"{  c #597426",
"}  c #5C7926",
"|  c #567128",
" . c #5B7729",
".. c #5C7929",
"X. c #496634",
"o. c #556736",
"O. c #556D35",
"+. c #467938",
"@. c #606B25",
"#. c #617E2A",
"$. c #6A7C2C",
"%. c #707C2C",
"&. c #434343",
"*. c #474B41",
"=. c #4B4B4B",
"-. c #4E5148",
";. c #535353",
":. c #585758",
">. c #5B5B5B",
",. c #5B6943",
"<. c #5F7240",
"1. c #617148",
"2. c #687355",
"3. c #70795F",
"4. c #656565",
"5. c #696B64",
"6. c #6B6B6B",
"7. c #747474",
"8. c #7B7C7B",
"9. c #178C3F",
"0. c #29893B",
"q. c #368839",
"w. c #2B933F",
"e. c #33933E",
"r. c #448E3E",
"t. c #57983C",
"y. c #65842B",
"u. c #68872B",
"i. c #6A8A2C",
"p. c #74852C",
"a. c #6F912D",
"s. c #70922D",
"d. c #6D8A34",
"f. c #788A30",
"g. c #739334",
"h. c #7D9233",
"j. c #7F9934",
"k. c #76933C",
"l. c #389A41",
"z. c #1FA949",
"x. c #2EAC4B",
"c. c #39A243",
"v. c #409E42",
"b. c #6F8042",
"n. c #799542",
"m. c #798F55",
"M. c #4CA140",
"N. c #56A742",
"B. c #4EB144",
"V. c #58B747",
"C. c #67AE47",
"Z. c #6BB342",
"A. c #63BB46",
"S. c #6CBB45",
"D. c #67BA48",
"F. c #74BF45",
"G. c #7CBE45",
"H. c #7ABF48",
"J. c #798467",
"K. c #6EC146",
"L. c #75C146",
"P. c #7DC244",
"I. c #82952F",
"U. c #829432",
"Y. c #849B35",
"T. c #8AA236",
"R. c #97AD35",
"E. c #91AD38",
"W. c #89B23C",
"Q. c #98B43B",
"!. c #9EBC3B",
"~. c #A0BD3C",
"^. c #96C73F",
"/. c #9DCA3E",
"(. c #A6C83C",
"). c #A3CC3D",
"_. c #AED13E",
"`. c #819854",
"'. c #85BA43",
"]. c #99BF41",
"[. c #8B9F66",
"{. c #838C77",
"}. c #8A9478",
"|. c #94A378",
" X c #86C443",
".X c #8EC742",
"XX c #8EC841",
"oX c #93C641",
"OX c #94C941",
"+X c #99CB40",
"@X c #A1C745",
"#X c #A4CB40",
"$X c #838383",
"%X c #8C8C8B",
"&X c #8F918E",
"*X c #959A8A",
"=X c #939393",
"-X c #979A92",
";X c #9B9B9B",
":X c #9AA485",
">X c #9DA491",
",X c #9FA398",
"<X c #A2A798",
"1X c #A1A39D",
"2X c #A2A2A1",
"3X c #A4A4A3",
"4X c #ADADAC",
"5X c #B2B2B1",
"6X c #BCBCBC",
"7X c #C2C2C2",
"8X c #C9C9C9",
"9X c #D2D2D2",
/* pixels */
"s.s.s.s.s.s.s.s.s.s.s.s.s.s.a.i.i.i.i.i.i.i.i.i.i.i.i.i.i.i.i.u.#.#.#.#.#.#.#.#.#.#.#.#.#.#.#.y.i.i.i.i.i.i.i.i.i.i.i.i.i.i.i.i.",
"s.s.s.s.s.s.s.s.s.s.s.s.i.d.a.i.i.i.i.i.i.i.i.i.i.i.i.i.i.i.i.u.#.#.#.#.#.#.#.#.#.#.#.#.#.#.#.y.i.i.i.i.i.i.i.i.i.i.i.i.i.i.i.i.",
"s.s.s.s.s.s.s.s.s.s.s.k.3.5.#.i.i.i.i.i.i.i.i.i.i.i.i.i.i.i.i.u.#.#.#.#.#.#.#.#.#.#.#.#.#.#.#.y.i.i.i.i.i.i.i.i.i.i.i.i.i.i.i.i.",
"s.s.s.s.s.s.s.s.s.s.n.*X&X6.@ w A p N y.i.i.i.i.i.i.i.i.i.i.i.u.#.#.#.#.#.#.#.#.#.#.#.#.#.#.#.y.i.i.i.i.i.i.i.i.i.i.i.i.i.i.i.i.",
"s.s.s.s.s.s.s.s.s.k.>X2X=Xx > f z > o & { i.i.i.i.i.i.i.i.i.i.u.#.#.#.#.#.#.#.#.#.#.#.#.#.#.#.y.i.i.i.i.i.i.i.i.i.i.i.i.i.i.i.i.",
"s.s.s.s.s.s.s.s.n.<X2X=X=.- f >.=.> f f % ` i.i.i.i.i.i.i.i.i.u.#.#.#.#.#.#.#.#.#.#.#.#.#.#.#.y.i.i.i.i.i.i.i.i.i.i.i.i.i.i.i.i.",
"s.s.s.s.s.s.s.k.<X3X;X4.o > &.>.h > f z j y ( i.i.i.i.i.i.i.i.u.#.#.#.#.#.#.#.#.#.#.#.#.#.#.#.y.i.i.i.i.i.i.i.i.i.i.i.i.i.i.i.i.",
"s.s.s.s.s.s.g.>X2X;X$X- h x =.j f O > j z z @ N i.i.i.i.i.i.i.u.#.#.#.#.#.#.#.#.#.#.#.#.#.#.#.y.i.i.i.i.i.i.i.i.i.i.i.i.i.i.i.i.",
"s.s.s.s.s.g.:X4X;X%Xj O h x f c f o o > j z z - m i.i.i.i.i.i.u.#.#.#.#.#.#.#.#.#.#.#.#.#.#.#.y.i.i.i.i.i.i.i.i.i.i.i.i.i.i.i.i.",
"s.s.s.s.s.|.5X5X=X&.  O > =.> x o     o > h z x : p u.i.i.i.i.u.#.#.#.#.#.#.#.#.#.#.#.#.#.#.#.y.i.i.i.i.i.i.i.i.i.i.i.i.i.i.i.i.",
"s.s.s.s.[.4X4X;X>.  o - z - - o         o - h z x > w #.i.i.i.u.#.#.#.#.#.#.#.#.#.#.#.#.#.#.#.y.u.i.i.i.i.i.i.i.i.i.i.i.i.i.i.i.",
"s.s.s.`.4X5X2X7.O   h z O o o             o - h z c h < } i.i.u.#.#.#.#.#.#.#.#.#.#.#.#.#.#.#.y.u.i.i.i.i.i.i.i.i.i.i.i.i.i.i.i.",
"s.s.n.1X4X3X8.-     - x o                   = - h z c j & ` i.u.#.#.#.#.#.#.#.#.#.#.#.#.#.#.#.y.u.i.i.i.i.i.i.i.i.i.i.i.i.i.i.i.",
"s.g.>X;X;X$X>     ; 4                   . H z.9.C f z c z % U u.#.#.#.#.#.#.#.#.#.#.#.#.#.#.#.y.i.i.i.i.i.i.i.i.i.i.i.i.i.i.i.i.",
"s.[.2X;X%Xj   o c O                     , V.F.D.x.d f z c z - N ..#.#.#.#.#.#.#.#.#.#.#.#.#.#.y.u.i.i.i.i.i.i.i.i.i.i.i.i.i.i.i.",
"`.2X;X=Xz o o f h h                     @ '.^.oXP.l.@ > z x c : p { ............................u.i.i.i.u.u.i.i.i.i.i.i.u.u.u.i.",
",X2X=Xx - - > >.O                       3 '.!.T./.L.v o > j x c > r ( ` ` ` ` ` ` ` ` ` ` ` ` { y.u.y.y.u.u.y.y.u.u.u.y.y.y.u.u.",
";X=Xx - z - h - o                 + 1 2 L oXt o $.^.N.+ o > j x c f < W ( ( ( ( ( ( ( ( ( ( ( ` #.y.y.y.u.u.y.y.u.u.u.y.y.y.y.u.",
"%X&.O > z &.> o o             = H z.z.J O.q       $.oXP + o - h z c h & E ( ( ( ( ( ( ( ( ( ( ` #.y.y.y.u.u.y.y.u.u.y.y.y.y.u.u.",
"z > > c j z h -               Z V.F.A.c.#         o Y. Xe.B o - h z c j @ N ( ( ( ( ( ( ( ( ( ` #.y.u.u.u.u.y.y.u.u.y.y.y.y.u.u.",
"@ f =.&.x h z               + v..XoX XA.8           r p.^.V.5 o - h z c z % M ( ( ( ( ( ( ( ( ` #.u.u.u.y.y.y.y.y.y.y.y.y.y.y.u.",
"n > x &.> > o               9 L.)./.OX Xc.8           X p.~.Z.0.G - f z c z % p ( ( ( ( ( ( ( ` #.u.u.u.y.u.y.y.y.y.y.y.y.y.u.u.",
"' : h > - o               . l.W.h.Q.)./. XB.J .           X Q oXD.Z O f z c x - i ( ( ( ( ( ( ` #.y.y.y.u.u.u.u.y.y.y.y.y.y.y.y.",
"..O > > > O o             1 t.<   & T.).).OXL.e.9             _ E.Z.# O > j x c > r ( ( ( ( ( ` #.y.u.u.u.u.u.u.u.y.y.y.y.y.y.y.",
"i.p O h h f - o       . 9 e.L       4 s E.)./.oXM..             X  .t.Z O > h x c y & W ( ( ( ` #.y.u.u.u.u.y.y.y.y.y.y.y.y.y.y.",
"i.u.b o h h h - o   + w.A.XXF.C         < U._.)..XP                 | S.5 X : h z c h & W ( ( ` #.y.u.u.u.u.y.y.y.y.y.y.y.y.u.u.",
"i.i.i.U O f j h > o 1 G.).)./.]           X %.!.).P.0.9 .             _ N.Z o - h z c j % N ( ` #.y.u.u.y.y.y.y.y.y.u.u.u.u.u.u.",
"i.i.i.i.` % > j h g C.@X(.).).Z.0 .           $ T.).XXA.0..           X h.Z.V . - h z c z @ n ` #.y.u.u.y.y.y.y.y.u.u.u.u.u.u.u.",
"i.i.i.i.i.} < - j ^ b.e 4 f.Q./.S.e.o           & Y.(.).G.#               ' K.J o - f z x z % b #.y.y.y.y.u.u.u.u.u.u.u.u.u.u.u.",
"i.i.i.i.i.i.u.p - j z h - o @ f.). XD .             r U.+XP               % Y.Z.,   O > j x x : b #.y.y.y.y.u.u.u.y.u.u.u.u.u.u.",
"i.i.i.i.i.i.i.i.M O h z h > O X Y./.L.q.1             < (.G.5                 M ]     O > j x c > i ..y.y.y.u.u.y.y.y.y.y.y.u.u.",
"i.i.i.i.i.i.i.i.i.T % h z z f O q !.)..XA.e.G .         s #XM.9                 a u     o > h x c h i { #.y.y.y.#.#.#.#.#.#.y.y.",
"u.u.u.u.u.u.u.u.u.u.{ * > z z h - i @.R.)./.F.0           h.+XV.V                         o - h z :.%Xe W ` ` ` ` ` ` ` ` ` ` ` ",
"u.u.u.u.y.y.u.u.u.u.y.} w - z z h > o X I R.).N.v         r f.!.S.Z                         o - h :.7X$X-.M ( ( ( ( ( ( ( ( ( ( ",
"u.u.u.u.y.y.y.y.u.u.u.y.#.b - z z j > o   $ I./.S.q.#         s ~.F.Z                         o - $X8.=X>.% n ( ( ( ( ( ( ( ( ( ",
"u.u.u.u.y.y.y.y.u.u.u.y.u.y.N @ h x z f O   @ m Q.XXP           % ' H.K 9                       h 8.4.8.:.z > n ( ( ( ( ( ( ( ( ",
"u.y.y.y.y.u.y.y.u.u.u.u.u.y.y.U % h x z h - o   & E.G.v             _ '.V.V                   o z 6X7.7.z x x - i ( ( ( ( ( ( ( ",
"u.u.y.y.u.y.y.y.u.u.u.u.u.u.y...( < > x z h - o   _ #XZ.V .           e ].D.0                 f %X> 4X%X> l x x - 6 Q ( ( ( ( ( ",
"y.y.y.y.u.u.u.u.u.y.u.u.y.y.y...| ` r - z x j > o X i j.P.q..           & n +.5             o =Xj   - - o R ~ z c > * W ( ( ( ( ",
"y.y.y.y.u.u.u.u.y.y.y.y.y.y.y...| [ ` b % z x z 7 O   X _ '.P +             @ +.            ;.%X6Xh       4 k h z c h % E ( ( ( ",
"y.y.y.u.y.y.y.y.y.y.u.u.u.u.y...| | | ` N @ h x z f O     $ / r.#             ; @ o       - 8.- =.5X-   ; o o - h z x h & W ( ( ",
"y.y.y.u.u.y.y.y.y.y.u.u.u.u.y...| | | | | W % f c z h - o     4 ] 0 o             o   o > 5X%Xx   -   @ ^ S   o - f z x z S ( ( ",
"y.y.u.u.u.u.y.y.y.y.y.y.y.y.y...| | | | | | ( < > x x h > o       & u                 o 8.2X8X3X      6 X.6     o O f j x R ( ( ",
"y.y.u.u.u.u.y.y.y.y.y.y.y.y.y...| | | | | | | ` i - z x j > o                     - z - 8X;Xh 9X-       %           O > j ,.( ( ",
"y.y.y.u.u.u.u.y.y.y.u.u.y.u.y...| | | | | | | | [ n @ z c z f O                   f 3X=.o O h 7X- @ X.@               o h 1.( ( ",
"y.y.u.u.u.u.y.y.y.u.u.u.y.y.y...| | | | | | | | | | U % h c z h - o               o h 4X6.- $X;.  X.O.4                 &.<.( ( ",
"u.u.u.u.y.y.y.y.y.y.u.u.u.u.y...| | | | | | | | | | | ( & > c z h - o           4.6X4X=X%X=.    o 4 u                 o 8.O.( ( ",
"y.y.y.y.y.y.y.y.y.y.y.y.y.y.y...| | | | | | | | | | | | ` r - x x j > o   h O ;.=.=X&.o   o   u     o o               z -X) ( ( ",
".............................. .| | | | | | | | | | | | | | s @ z x z > o 6.6X8.5Xj =Xz     s X.A o                 o $X{.( ( ( ",
"( ( ( ( ( ( ( ( ( ( ( ( ( ( ( `  . . . . . . . . . . . . . . .N % j x &.&.8X7.;X$X:.o       @ ! @       o           &.4X<.Q Q Q ",
"( ( ( ( ( ( ( ( ( ( ( ( ( ( ( `  . . . . . . . . . . . . . . . .W u >.8.6X6.;X7X9X&.    4 r             o o o o   > ;X{.Q Q Q Q ",
"( ( ( ( ( ( ( ( ( ( ( ( ( ( ( `  . . . . . . . . . . . . . . . .` ( ^ %X%X=X4.f > &.  S F F               o o o o 8.1Xo.Q Q Q Q ",
"( ( ( ( ( ( ( ( ( ( ( ( ( ( ( `  . . . . . . . . . . . . . . . .` ` ` A c x 8.x 7 u o @ u                   o o 4.3X2.Q Q Q Q Q ",
"( ( ( ( ( ( ( ( ( ( ( ( ( ( ( `  . . . . . . . . . . . . . . . .` ` ` ` n % l x ~ m.A                         =.4XJ.Q Q Q Q Q Q ",
"( ( ( ( ( ( ( ( ( ( ( ( ( ( ( `  . . . . . . . . . . . . . . . .` ` { { ` U % h c x h -                     c 2X{.) Q Q Q Q Q Q ",
"( ( ( ( ( ( ( ( ( ( ( ( ( ( ( `  . . . . . . . . . . . . . . . .` ` { { { | ( < > x z h - o               &.2X}.) Q Q Q Q Q Q Q ",
"( ( ( ( ( ( ( ( ( ( ( ( ( ( ( `  . . . . . . . . . . . . . . . .` { { { { { ` ( r - x x j > o         o ;.4X}.) Q Q Q Q Q Q Q Q ",
"( ( ( ( ( ( ( ( ( ( ( ( ( ( ( `  . . . . . . . . . . . . . . . .{ { { { { { { ` ` p @ z x j > o     - 7.4XJ.) Q Q Q Q Q Q Q Q Q ",
"( ( ( ( ( ( ( ( ( ( ( ( ( ( ( `  . . . . . . . . . . . . . . . .{ { { { ` ` ` [ ` ` M @ h x z f - &.&X{.o.Q Q Q Q Q Q Q Q Q Q Q ",
"( ( ( ( ( ( ( ( ( ( ( ( ( ( ( `  . . . . . . . . . . . . . . . .` { { { ` ` ` [ { { ` U & h x *.2.1.o.Q Q Q Q Q Q Q Q Q Q Q Q Q ",
"( ( ( ( ( ( ( ( ( ( ( ( ( ( ( `  . . . . . . . . . . . . . . . .` ` { { { { [ [ { { ` ` ` ( ` ` ( Q Q Q Q Q Q Q Q Q Q Q Q Q Q Q ",
"( ( ( ( ( ( ( ( ( ( ( ( ( ( ( `  . . . . . . . . . . . . . . . .` ` { { { { [ [ { { ` ` ` ` ` ` ( Q Q Q Q Q Q Q Q Q Q Q Q Q Q Q ",
"( ( ( ( ( ( ( ( ( ( ( ( ( ( ( `  . . . . . . . . . . . . . . . .` [ ` { { { { [ ` { { { ` { ` ` ( Q Q Q Q Q Q Q Q Q Q Q Q Q Q Q ",
"( ( ( ( ( ( ( ( ( ( ( ( ( ( ( `  . . . . . . . . . . . . . . . .` [ ` ` { { [ [ { { ` { ` ` ` ` Q Q Q Q Q Q Q Q Q Q Q Q Q Q Q Q "
};
