/* XPM */
static char *_5c1c664b24c4245e59b1c601aa211a6MrJQoRKMLQgIYWo1[] = {
/* columns rows colors chars-per-pixel */
"50 50 198 2 ",
"   c #34322F",
".  c #363531",
"X  c #383734",
"o  c #3B3936",
"O  c #3D3C39",
"+  c #403F3C",
"@  c #42413E",
"#  c #4C473C",
"$  c #504A3D",
"%  c #5D533F",
"&  c #6B5B3C",
"*  c #454442",
"=  c #484745",
"-  c #4A4947",
";  c #4D4C4B",
":  c #504A42",
">  c #504F4D",
",  c #5A5346",
"<  c #51504F",
"1  c #5A554C",
"2  c #5E584F",
"3  c #545452",
"4  c #585755",
"5  c #595856",
"6  c #5C5B5A",
"7  c #625B4B",
"8  c #615D54",
"9  c #605F5D",
"0  c #6B6048",
"q  c #7B6A45",
"w  c #656057",
"e  c #6C6555",
"r  c #62615E",
"t  c #6A655B",
"y  c #6E695D",
"u  c #756B56",
"i  c #796D54",
"p  c #726A5C",
"a  c #7B715B",
"s  c #646362",
"d  c #686766",
"f  c #6D6961",
"g  c #6C6B6A",
"h  c #716C63",
"j  c #706F6F",
"k  c #7C7466",
"l  c #9F7631",
"z  c #A07732",
"x  c #A37B34",
"c  c #A57E3A",
"v  c #89754B",
"b  c #937D4C",
"n  c #867758",
"m  c #82755C",
"M  c #947F53",
"N  c #857963",
"B  c #887C63",
"V  c #857B6A",
"C  c #8A7F6E",
"Z  c #A7823F",
"A  c #AA833B",
"S  c #AF883D",
"D  c #B28B3E",
"F  c #978357",
"G  c #A78240",
"H  c #AB8644",
"J  c #AE8944",
"K  c #A2874E",
"L  c #AB874A",
"P  c #AE8A4B",
"I  c #B28C43",
"U  c #B28E49",
"Y  c #B59145",
"T  c #BA9546",
"R  c #B6924C",
"E  c #B9964B",
"W  c #BC994C",
"Q  c #A78C58",
"!  c #B28D51",
"~  c #AF9354",
"^  c #B39454",
"/  c #B99650",
"(  c #BD9C53",
")  c #B5965C",
"_  c #BE9D5A",
"`  c #8A816F",
"'  c #988563",
"]  c #93866A",
"[  c #968B6D",
"{  c #8C8473",
"}  c #918672",
"|  c #9A8B73",
" . c #9F8F78",
".. c #9D9177",
"X. c #AA8F64",
"o. c #A89366",
"O. c #A4936D",
"+. c #B29564",
"@. c #B39964",
"#. c #BD9F63",
"$. c #B59D6C",
"%. c #BA9E6B",
"&. c #A39373",
"*. c #A89976",
"=. c #AB9C7C",
"-. c #B49C71",
";. c #BFA161",
":. c #BDA26C",
">. c #BBA474",
",. c #B1A57F",
"<. c #B9AA7E",
"1. c #C09E52",
"2. c #C4A14E",
"3. c #C3A355",
"4. c #CAA652",
"5. c #CDAA56",
"6. c #C4A45B",
"7. c #C7A95C",
"8. c #CCAB5B",
"9. c #D0AF5A",
"0. c #CEB15D",
"q. c #D2B25E",
"w. c #C4A664",
"e. c #C7A963",
"r. c #CAAC62",
"t. c #C3A66B",
"y. c #C7AA6D",
"u. c #CAAD6C",
"i. c #CEB062",
"p. c #CEB36C",
"a. c #D3B463",
"s. c #D6B964",
"d. c #DAB963",
"f. c #D2B56B",
"g. c #D5BA6B",
"h. c #DBBC6C",
"j. c #C0A775",
"k. c #C5A973",
"l. c #CAAE72",
"z. c #C3AB7B",
"x. c #CFB472",
"c. c #CEB57A",
"v. c #D1B772",
"b. c #D5BA73",
"n. c #DBBE74",
"m. c #D1B67A",
"M. c #D5BB7A",
"N. c #D9BF7C",
"B. c #DCC16D",
"V. c #DEC275",
"C. c #E1C16F",
"Z. c #E2C473",
"A. c #E6C976",
"S. c #E2C679",
"D. c #E5CB7C",
"F. c #EACD7A",
"G. c #ECD17E",
"H. c #A99B81",
"J. c #B39E80",
"K. c #AFA086",
"L. c #B4A687",
"P. c #B9A682",
"I. c #BCAC86",
"U. c #BBAB89",
"Y. c #C3AD82",
"T. c #CBB383",
"R. c #C5B38E",
"E. c #CDB78E",
"W. c #CDB98B",
"Q. c #D3BB82",
"!. c #CABA96",
"~. c #DBC383",
"^. c #DBC587",
"/. c #D7C28B",
"(. c #D8C699",
"). c #E3CB84",
"_. c #E3CD8F",
"`. c #ECD383",
"'. c #EFDA87",
"]. c #EBD288",
"[. c #F3DA85",
"{. c #F0D688",
"}. c #F4DC8C",
"|. c #E8D495",
" X c #E5D299",
".X c #EDDB9C",
"XX c #F1DE91",
"oX c #F4E18F",
"OX c #F8E28F",
"+X c #F6E393",
"@X c #F8E592",
"#X c #FAE996",
"$X c #F6E49A",
"%X c #F9E699",
"&X c #FCED9D",
"*X c #F3E3A1",
"=X c #F7E9A5",
"-X c #FDF3A6",
/* pixels */
"> 6 3 3 9 6 6 6 4 6 6 ; ; 6 d s d g g d g j g g g s = 6 s 6 6 r s d d r s s r * s d s 6 r s 6 6 6 = ",
"3 4 3 ; 3 6 6 6 4 3 6 3 < s r 6 6 s s 4 6 s 6 r 5 3 * 4 6 9 > 4 9 6 5 3 3 6 6 + 6 s 6 4 4 5 6 6 4 ; ",
"3 4 ; ; 3 6 6 6 6 4 6 * ; 6 6 3 * < 6 3 4 4 3 3 3 3 + 4 d s 6 6 6 6 3 3 4 5 < O 3 r 6 6 3 - ; 3 3 > ",
"; 6 4 5 3 6 6 4 < 3 4 * 3 6 3 ; ; ; 4 4 4 3 ; 3 3 ; O 6 d d s 6 5 < 3 4 5 ; - @ 4 5 6 6 5 5 6 s s ; ",
"; 4 4 ; ; 4 6 ; - ; 3 * ; < ; 4 6 4 ; ; 3 > ; 4 < ; @ 6 s 6 4 3 ; - > 3 ; ; ; * 4 < < 3 6 4 4 4 4 ; ",
"- 3 - = ; < 3 ; ; ; * o * - 3 4 > ; * = ; ; ; 3 ; * o - ; ; ; - - > 3 3 3 3 * O ; 3 ; ; ; = ; < 3 - ",
"O O o o o . . . o o o O o X O o o X       .   . X o O O O o O . . X X O O O + @ + + + o . . o X o O ",
"6 6 5 3 3 @ = s s 3 4 6 6 6 6 6 6 6 - @ 3 3 4 5 d 9 6 6 6 4 5 ; @ 6 r s 5 4 6 6 6 5 4 3 + < 6 6 6 6 ",
"3 4 6 6 5 = > 9 6 4 4 6 s 6 6 6 6 6 ; * 6 5 6 6 6 6 6 6 6 4 4 4 = 6 9 9 5 5 6 3 5 9 s 6 @ 3 6 6 5 3 ",
"4 ; 3 6 < * 3 4 > 3 < ; 6 s r 6 6 3 = + 5 3 3 5 p B n m a e t 2 = 5 6 6 6 4 < 3 6 s 6 3 + < r 3 < ; ",
"< ; ; - ; * - 4 < ; ; 3 6 r s 9 5 > * + 4 i M Q #.t.l.x.e.6.;.%.o.[ a e 9 5 - ; 3 4 5 3 O < 6 ; - 4 ",
"6 6 3 3 3 * @ ; ; 3 4 4 6 4 ; ; ; ; - 0 K Y T W W / u./.M.i.a.s.h.n.M.z.O.m 2 < < ; 4 3 o ; > 4 6 6 ",
"5 ; 4 4 < O O - ; 3 4 4 3 3 = * 5 N Q E T Y R 6.e.6.e.N.M.u.6.5.q.h.F.]._.Q.>.B 9 6 6 3 o * ; 4 3 3 ",
"  . O O O O O o X o O .   . . # ' y.3.3.6.( ( p.n.h.V.S.n.f.8.3.7.i.h.`.XX.X|.Q.n 7 < + O O o o . . ",
"; 6 6 6 r 6 6 6 6 5 > - O ; t o.l.8.8.v.M.s.a.d.d.d.d.d.d.s.q.q.g.n.g.V.`.XX*X=X_.$.V h 9 6 6 6 < * ",
"6 s 6 3 6 9 6 6 4 3 4 6 * w o.e.8.0.i.a.9.5.4.5.q.a.g.g.h.B.h.B.V.V.h.h.V.D.].XX$X.X/.[ k t 6 9 6 < ",
"4 6 6 6 6 5 - = ; - ; 3 = F ( 6.a.a.q.4.4.5.a.h.V.D.`.oX'.G.A.a.a.g.g.f.f.f.v.v.n.).|.^.*.k r 3 > > ",
"6 5 6 6 6 4 - - ; ; > < q / ( a.a.q.5.5.5.9.a.h.A.[.@X#X@XOX`.Z.a.6.^ P ( 8.f.x.p.r.b.^.^.<.a < 3 3 ",
"; 3 3 6 6 < 3 3 < 3 3 7 ^ 6.r.g.a.5.5.4.4.d.F.OX&X-X-X&XOX}.{.).~.Y.] t i v ^ 7.e.7.6.y./. XI.y 3 < ",
"> 3 4 < ; 3 < 3 3 < < b 6.r.g.s.q.5.2.5.h.F.[.}.+X}.+X}.`.S.V.~.P.y w < 3 ; $ v @.F O.Y.I.E. X*.5 ; ",
"O o . X X X . o O o % ( u.p.g.0.2.W 3.a.h.C.C.Z.A.Z.Z.Z.V.b.f.z.u O . . o .   X , a 7 e ] &.W.W.1 . ",
"> ; ; - O X - ; ; - v 6.u.g.0.W T W 3.8.a.C.`.+X%X+X}.G.D.N.c.] @ * ; ; - ; 5 3 ; w B i m =.U.(.} - ",
"4 6 6 5 - @ 6 4 3 8 ~ w.v.a.W Y Y W 3.a.A.[.&X-X-X#X}.`.]..X=.5 * = ; ; ; 4 6 6 5 3 < 2 e ..L.!.{ 4 ",
"4 6 3 3 = + ; ; 4 i _ u.g.3.I I U E 8.h.F.}.$X%X@X}.`.A.].(.k < + - < < 3 4 4 3 = 3 3 ; o ; t t 6 6 ",
"3 3 - > - O * - < F 6.x.i.T I U Y 6.a.h.V.].`.`.`.A.h.h.).,.4 < O ; 3 3 4 3 > - > 3 3 ; @ ; 4 3 4 4 ",
"> - * - = O ; 3 2 P t.f.6.D U I 1.8.r.a.s.h.h.Z.C.h.V.^.<.e * ; O ; 4 3 ; * o * 3 4 ; - + - < 3 4 4 ",
"; - * @ O O 3 3 0 ^ u.f.E I U E 3.6.6.r.a.f.g.h.n.V.V.~.[ > 3 3 O * * ; ; - - 3 3 3 - = O - ; 3 < - ",
"    . o o o * o & _ p.7.S U / ( 3.3.6.i.f.f.g.g.n.n.n.Q.e o O + o X X o o o O O o . . X X X O o .   ",
"- ; < 4 5 4 4 < v w.p.E S R ( ( 3.1.6.e.p.M.~.~.M.b.l.&.6 4 3 4 4 3 3 4 3 < O * 4 6 5 < 3 > ; ; = O ",
"3 3 4 6 4 3 4 4 K w.6.S S R / ( ( ( ( e.Q.!.U.P.W.*.e 8 6 6 3 6 3 4 6 6 6 6 - * 3 6 6 4 3 ; > 3 > - ",
"; 4 5 3 = < 3 8 +.w.E A J U E ( ( ( ( u./.(.!.E.U.2 O ; 3 3 3 6 4 3 4 3 6 3 * O 3 3 ; ; 3 < 4 4 ; - ",
"3 6 6 - * < - p t.w.I A H U R / ( / 6.m.R.U.I.=.t O - 3 3 5 6 6 6 4 3 ; > ; o * 3 < > * = 3 3 ; - = ",
"3 3 = @ ; 3 ; | k.w.J x Z U R W W ( #.T.H.` ` t 4 @ ; 6 6 5 3 ; > ; * ; 3 3 * @ ; ; 3 - ; 3 ; ; 4 < ",
"> ; - = = ; 5 K.y.:.H z Z P U R / 6.t.R.f 3 3 3 3 O @ 3 5 ; @ * ; - * ; 5 4 @ O @ - < 3 ; ; < > ; * ",
"o X X . .   2 R.k.$.A z G P U Y ( t.T.K.O . X X o X X X o .   . X o . . o o . X X o o o . . o o . . ",
"; ; ; ; - O V E.Y.Q A l Z L J U ( :.T.} @ - ; ; ; 3 < 3 ; ; - - o = ; - ; ; ; 3 ; ; - - X o = - ; < ",
"4 6 9 6 3 5 | Y.J.L c l G L H U ) :.Y.e - < > < 6 5 3 3 > 3 > 3 O ; 3 < 3 6 6 6 4 3 3 4 @ * 3 3 4 > ",
"< 6 9 6 4 k &.&.' H c z L H H P %.j.*.@ - 3 > < 3 3 < - * ; ; 3 + 3 5 3 4 4 6 6 4 < < 3 @ - 5 4 < ; ",
"< 3 < w ` ..i N X.L c x P P P ) :.>.k X - ; 3 3 ; - - - - - = ; O > 5 3 > ; 3 4 ; < 6 3 O - 6 3 > < ",
"< 5 t h p 1 ,  .Y.%.! Z P ^ %.%.>.*.1 X = - - - * * = < 3 3 ; - o ; < - * - ; ; ; < ; - O ; 6 < - 3 ",
"3 3 5 3 ; > 1 C H.P.$.+.%.z.z.>.&.t ; o = 3 ; ; > ; = ; < ; < ; o < 3 3 > < 3 ; ; ; - = O - < * * < ",
"+ O o O + O . @ = : , , u =.-.m = O o . O @ O o + + + + O o O o . O O O + * O O o @ O o . o O X O @ ",
"X @ * = = = - * * * O . . t y > = * * = @ @ * * o . * * = * = = = = = = = * . O * O * - ; = * * * + ",
"3 4 3 5 6 9 r 6 9 6 3 = o 4 6 6 > 3 3 3 3 < 3 3 ; * 6 4 6 4 5 5 4 s 6 6 6 4 O 3 3 3 < 4 3 3 4 4 3 3 ",
"< 3 ; 4 6 6 4 3 < < ; + o 3 3 ; ; ; < > 4 < ; - * O ; 3 5 3 4 4 > 4 4 < ; - O ; 4 3 - ; - 3 3 3 < < ",
"; 5 ; = ; 4 r 5 - < ; * O 6 3 > ; ; ; - ; ; < - @ O > < 3 > 3 ; - ; 3 3 - * o - < 3 < ; ; ; ; < ; - ",
"3 4 ; * = > 3 3 ; ; ; = @ 3 ; ; ; 4 3 ; 3 < ; - @ @ 4 3 3 4 ; = ; ; * = - - o ; 3 < * ; 3 5 3 ; > + ",
"; 3 4 4 3 ; < ; ; 3 4 ; @ < = @ = 5 4 * - 3 ; < * * 5 3 < 4 ; 3 3 * @ = ; < O < 3 < < 5 3 < ; ; 3 * ",
"- 3 ; > 4 5 < > 4 4 3 = o ; ; < ; ; ; * * ; < ; O * 3 < 3 - = 3 5 < 3 ; ; < X ; 3 < 3 < = - > 3 3 = ",
"+ O X o O o X X o X . . X X X O o . o o o X X . . . . . o O o o o O + o o o . . . . o X   o . X o X "
};
