/* XPM */
static char *_302558a84a64499ad4cc856b6612427[] = {
/* columns rows colors chars-per-pixel */
"64 64 82 1 ",
"  c #301F0E",
". c #32210F",
"X c #362310",
"o c #3A2512",
"O c #362A13",
"+ c #3E2914",
"@ c #3C2C1C",
"# c #3A3113",
"$ c #3F3A15",
"% c #3F361A",
"& c #3D2F20",
"* c #4A330C",
"= c #432B15",
"- c #492F17",
"; c #4C3117",
": c #423A15",
"> c #4E3812",
", c #423A1E",
"< c #503514",
"1 c #503319",
"2 c #543C1B",
"3 c #403721",
"4 c #413A20",
"5 c #543A24",
"6 c #474719",
"7 c #55461D",
"8 c #7F580F",
"9 c #475C24",
"0 c #485E25",
"q c #4C5F29",
"w c #4C6426",
"e c #4E6229",
"r c #546D26",
"t c #50642A",
"y c #586E2C",
"u c #587327",
"i c #5C7929",
"p c #617E2A",
"a c #615A54",
"s c #635F5B",
"d c #626554",
"f c #666957",
"g c #65615D",
"h c #676A5D",
"j c #696C5D",
"k c #676564",
"l c #6A6662",
"z c #696866",
"x c #6E6D6D",
"c c #6E7364",
"v c #845C0D",
"b c #8A600D",
"n c #B37F04",
"m c #65842B",
"M c #68822F",
"N c #6C872F",
"B c #68882C",
"V c #6A8B2C",
"C c #6B882F",
"Z c #6B8C2C",
"A c #6D8F2C",
"S c #6E902D",
"D c #70922D",
"F c #6A8630",
"G c #6C8730",
"H c #6C8830",
"J c #B28005",
"K c #B48104",
"L c #BF8900",
"P c #AB8F3C",
"I c #CA9201",
"U c #C39920",
"Y c #D2A521",
"T c #DFAF23",
"R c #BB9B40",
"E c #C5A543",
"W c #C6A444",
"Q c #D7BD4D",
"! c #EECD53",
"~ c #EFCE55",
"^ c #FCDA58",
"/ c #FDDC5A",
/* pixels */
"DDDDDDDDDDDDDDSAZZZZZZZZZZZZZZVVpppppppppppppppmVVVVVVVVVVVVVVVV",
"DDDDDDDDDDDDDDSAZZZZZZZZZZZZZZVVpppppppppppppppmVVVVVVVVVVVVVVVV",
"DDDDDDDDDDDDDDSAZZZZZZZZZZZZZZVVpppppppppppppppmVVVVVVVVVVVVVVVV",
"DDDDDDDDDDDDDDSAZZZZZZZZZZZZZZVVpppppppppppppppmVVVVVVVVVVVVVVVV",
"DDDDDDDDDDDDDDSAZZZZZZZZZZZZZZVBpppppppppppppppmVVVVVVVVVVVVVVVV",
"DDDDDDDDDDDD6$$:777777777777777777777777777777777777VVVVVVVVVVVV",
"DDDDDDDDDDDD#...;11111111111111111111111111111111111GVVVVVVVVVVV",
"DDDDDDDDDDDD#...;11111111111111111111111111111111111GVVVVVVVVVVV",
"DDDDDDDDDDDD#...;111;;;;;;;;;;;;;111;;;;;;;;;;;;;111GVVVVVVVVVVV",
"DDDDDDDDDDDD#...;11;oXXXXXXXXXXX-111+XXXXXXXXXXX=111GVVVVVVVVVVV",
"DDDDDDDDDDDD#...;11;X...........-11;o...........=111NVVVVVVVVVVV",
"DDDDDDDDDDDD#...;11;X...........-11;o...........=111NVVVVVVVVVVV",
"DDDDDDDDDDDD,@@@;11;X...........-11;o...........=111NVVVVVVVVVVV",
"DDDDDDDDDDDDfgga511;X...+=======;11;o...o=======-111NVVVVVVVVVVV",
"DDDDDDDDDDDDcxxl511;X...+=======;11;o...+=======;111HVVVVVVVVVVV",
"SSSSSSSSSSSScxxl511;X...+=======;11;o...+=======;111FVVVVVVVVVVV",
"ZZZZZZZZZZZZjkks511;X...+=======;11;o...+=======;11;MmVVmVVVmmmm",
"ZZZZZZZZZZZZ,@@@;11;X...+=======;111o...+=======;11;MmmVmVVVmmmm",
"ZZZZZZZZZZAAO  .;11;X...+=======;11;o...+=======;11;MmVVmmVVmmVm",
"ZZZZZZZZZZZZ#..X;11;X...+=======;111o...+=======;11;MmVVmmmmmmVV",
"ZZZZZZZZZZZZ#...;11;X...+=======;11;o...+=======;111MmmmmmmmmVVV",
"ZZZZZZZZZZZZ#...;11;X...+=======;11;o...+=======;111MmmmmmmmmmVV",
"ZZZZZZZZZZZZ#...;11;X...+=======;11;o...+=======;111MmmmVVmVmmmm",
"ZZZZZZZZZZZZ#...;11;X...+=======;11;o...+=======;111MmmVVVVVmmmm",
"ZZZZZZZZZZZZ#...;11;X...+=======;111o...+=======;111MVVVmmmmmmmm",
"ZZZZZZZZZZZZ#...;11;X...+=======;11;o...+=======;111MVVVmmmmmmmm",
"ZZZZZZZZZZZZ#...;11;X...+=======;11;o...+=======;111MVVVmmVVmVVV",
"ZZZZZZZZZZZZ#..X;11;X...========;11;o...+=======;111MVVVmVVVVVVV",
"ZZZZZZZZZZZZ%OO+;11;o..X========;11;+...;2221<<<1111MmmmBVVVVVVV",
"ZZZZZZZZZZZZfgga511;;;;;;;;;;;;;1111;;;1PQQQUnKJ8111MmmmmmVVVVVV",
"ZZZZZZZZZZZZcxxl511111111111111111111112E^^/TIIIb111MmmmmmmmmmVV",
"VVVVVVVVVVVVcxxl511111111111111111111112W^^/TIIIb111ppppppppppmm",
"VVVVVVBBBBVVjzzg5111;;;;;;;;;;;;1111;;;1R!!~YLLLv111yrrrrrrrrrrr",
"VVVVVVmmmmVV4@@@;11;oXXXXXXXXXXX-11;+XXX;222>***;111twwwwwwwwwww",
"mmVVVVmmmmmVO. .;11;X...........-11;o....     ..=111twwwwwwwwwww",
"mVVVVVVmmmmB#..X;11;X...........-11;o...........=111twwwwwwwwwww",
"mmVVVVmmVVVV#...;11;X...........-11;o...........=111twwwwwwwwwww",
"mmVVVVmmVVVV#...;11;X...+=======;11;o...o=======-111twwwwwwwwwww",
"mmmmmmmmmmVV#...;11;X...========;11;o...+=======;111twwwwwwwwwww",
"mmmmmmmmmmVV#...;11;X...+=======;11;o...+=======;111twwwwwwwwwww",
"VVmVmmVmmmVV#...;11;X...+=======;11;o...+=======;111twwwwwwwwwww",
"VVVVmmmmmmVV#...;11;X...+=======;11;o...+=======;111twwwwwwwwwww",
"mmVVmmmmmmmmO...;11;X...+=======;11;o...+=======;111twwwwwwwwwww",
"mmmmmmVVmmmm#...;11;X...+=======;11;o...+=======;111twwwwwwwwwww",
"mmmmmmmVVVVV%OO+;11;X...+=======;11;o...+=======;111twwwwwwwwwww",
"mmmmmmmVVVVmdssa511;X...+=======;11;o...+=======;111twwwwwwwwwww",
"VVmmmmmmVVmmcxxl511;X...+=======;11;o...+=======;111twwwwwwwwwww",
"mmmmmmmmmmmmcxxl511;X...+=======;11;o...+=======;111twwwwwwwwwww",
"iiiiiiiiiiiihzzg511;X...+=======;11;o...+=======;111ewwwwwwwwwww",
"wwwwwwwwwwww3&&@;11;X...+=======;11;o...+=======;111e00000000000",
"wwwwwwwwwwwwO..X;11;X...+=======;11;o...+=======;111q00000000000",
"wwwwwwwwwwwwO...;11;X...+=======;11;o...+=======;111q00000000000",
"wwwwwwwwwwwwO...;11;o..X========;11;+...+=======;111q00000000000",
"wwwwwwwwwwwwO...;11;;---;;;;;;;;;111;---;;;;;;;;;111q00000000000",
"wwwwwwwwwwwwO...;11111111111111111111111111111111111q00000000000",
"wwwwwwwwwwwwO...;11111111111111111111111111111111111q00000000000",
"wwwwwwwwwwwwO...-;;;;;;;;;;;;;;;;;;;;;;;;;;;;;;;;;;;q00000000000",
"wwwwwwwwwwwwO...XoooooooooooooooooooXooooooooooooooXq00000000000",
"wwwwwwwwwwwwO.......................................q00000000000",
"wwwwwwwwwwwwO.......................................q00000000000",
"wwwwwwwwwwwwO................X......................q00000000000",
"wwwwwwwwwwwwwwwruuuuuuuuuuuuuuuurrrrrrrrrrrrrrrr0999000000000000",
"wwwwwwwwwwwwwwwruuuuiiiuuuuuiiuuuuuurrruuuuurrrrw000000000000000",
"wwwwwwwwwwwwwwwruuuuiiiiuuuuiiuuuuuurruuuuuurrrrw000000000000000"
};
