/* XPM */
static char *_e92e660e2b24daac72c36fb06537c283j2nkpvDyStKHKgB[] = {
/* columns rows colors chars-per-pixel */
"50 50 124 2 ",
"   c #312F2B",
".  c #34322E",
"X  c #363531",
"o  c #383734",
"O  c #3A3936",
"+  c #3E3C3A",
"@  c #403F3C",
"#  c #00751D",
"$  c #017721",
"%  c #047924",
"&  c #097B27",
"*  c #0B7C2A",
"=  c #117F2F",
"-  c #42413E",
";  c #454442",
":  c #484745",
">  c #4A4946",
",  c #4D4C4B",
"<  c #504F4D",
"1  c #51504F",
"2  c #545452",
"3  c #585756",
"4  c #595857",
"5  c #5C5B5A",
"6  c #605F5E",
"7  c #61605F",
"8  c #646462",
"9  c #686766",
"0  c #696866",
"q  c #6D6C6A",
"w  c #706F6D",
"e  c #737271",
"r  c #757574",
"t  c #118030",
"y  c #148132",
"u  c #1A8437",
"i  c #1A8538",
"p  c #1D8539",
"a  c #1E883D",
"s  c #21893E",
"d  c #268C43",
"f  c #298E46",
"g  c #2D8F49",
"h  c #2E904B",
"j  c #31924E",
"k  c #359452",
"l  c #389653",
"z  c #399756",
"x  c #3B9857",
"c  c #3C9959",
"v  c #429B5C",
"b  c #469F62",
"n  c #499F63",
"m  c #4CA166",
"M  c #4FA36A",
"N  c #52A46B",
"B  c #53A56D",
"V  c #55A66E",
"C  c #57A770",
"Z  c #58A771",
"A  c #5CAA74",
"S  c #5EAC78",
"D  c #65AE7C",
"F  c #66AF7D",
"G  c #67B282",
"H  c #6CB283",
"J  c #70B283",
"K  c #73B68A",
"L  c #78B88C",
"P  c #7DBC92",
"I  c #7FBF98",
"U  c #82BE96",
"Y  c #85BF97",
"T  c #B3B2B2",
"R  c #B4B4B4",
"E  c #BBBBBB",
"W  c #BDBDBD",
"Q  c #86C098",
"!  c #86C099",
"~  c #8AC29D",
"^  c #8AC39E",
"/  c #8EC5A1",
"(  c #91C6A3",
")  c #94C7A4",
"_  c #94C8A6",
"`  c #95C9A8",
"'  c #9BCCAC",
"]  c #9DCEB0",
"[  c #A0CEAF",
"{  c #A1CFB1",
"}  c #A4D1B5",
"|  c #A9D2B6",
" . c #A7D3B8",
".. c #A9D4B9",
"X. c #B5DAC3",
"o. c #BCDDC9",
"O. c #C0C0C1",
"+. c #D2D2D2",
"@. c #DEDEDF",
"#. c #C1E0CD",
"$. c #C5E2D1",
"%. c #CAE3D3",
"&. c #D2E7D9",
"*. c #D1E8DB",
"=. c #D4E8DA",
"-. c #D8EBDF",
";. c #DFDFE0",
":. c #DCEDE3",
">. c #DFEEE4",
",. c #E1E2E3",
"<. c #E7E6E6",
"1. c #E8E7E7",
"2. c #E0EEE4",
"3. c #E8E7E8",
"4. c gray91",
"5. c #E1F0E7",
"6. c #E5F2EA",
"7. c #EAF4EE",
"8. c #ECF6EF",
"9. c #F7F5F6",
"0. c #F0F8F3",
"q. c #F3F9F7",
"w. c #F6FAF8",
"e. c white",
/* pixels */
"+ 2 2 2 5 5 3 5 5 5 8 2 - 2 8 8 9 q q q q q q 0 q 0 : 4 9 8 9 8 6 9 0 8 7 6 5 ; 7 9 8 6 8 9 5 5 5 ; ",
": 2 3 , 2 5 5 5 2 2 2 5 > 7 8 5 5 8 0 5 5 9 8 8 5 5 ; 2 5 5 2 4 8 5 5 3 2 5 7 - 5 8 5 3 4 5 7 6 4 , ",
"> 3 2 , 2 3 5 5 5 2 5 2 ; 5 5 4 , < 5 2 2 4 2 2 2 2 - 1 8 9 3 2 5 5 2 1 2 5 2 + 1 8 5 5 2 , < 2 2 < ",
"; 5 2 2 2 2 5 5 2 2 2 > : 5 4 < , > 2 4 2 2 1 1 2 2 + 2 9 9 9 8 5 2 2 5 5 1 > - 2 5 5 5 4 2 2 5 8 , ",
"@ 2 5 2 , 2 5 2 > , 2 , : 2 , 2 4 2 , < 2 1 , 2 1 < @ 4 8 5 2 2 , > , 1 , > , ; 2 2 2 2 5 5 4 5 5 , ",
"; 2 1 ; , 2 2 2 , , , + - , 2 5 2 2 > > < 2 1 2 2 > + , 2 1 2 , , < 3 2 3 3 > + 1 2 < < 1 , 1 2 2 , ",
"+ + O o + o o X o + o o o X + + o o X X X X X X X X + + o o o o o o o o + + + @ + - - O o X O o o + ",
"5 2 2 , 2 ; + 2 5 2 1 4 2 2 4 5 5 3 > + , , 1 2 5 5 2 3 5 2 2 , + 2 5 6 2 2 5 5 4 2 2 < + , 3 3 3 2 ",
"2 2 5 6 5 < : 5 8 4 2 4 8 5 5 5 5 5 3 @ 3 5 5 6 5 8 5 5 5 2 2 4 ; 5 7 7 5 3 5 2 2 5 8 5 - 2 7 5 5 2 ",
"2 2 , 5 2 , > 5 2 1 2 , 4 8 7 5 5 2 , + 2 2 2 2 4 8 6 4 4 2 2 2 - 2 5 5 5 2 2 2 5 8 5 2 - < 7 2 2 , ",
"3 , , , > > ; 4 2 , , < 4 8 8 8 5 2 > + 1 2 , , 5 5 6 5 5 5 , : + 2 4 2 4 4 , , 2 5 5 2 + 1 5 , > 2 ",
"2 5 2 1 1 , + , , 1 2 2 5 4 , < < , > + 2 2 , 1 3 2 , 1 2 2 > ; + 1 5 2 1 < > , 1 , 2 2 O , 1 2 5 5 ",
"5 2 2 5 2 ; o > > 2 2 2 2 2 > - , 2 ; o 4 1 , 1 2 2 , 1 2 > > > o > 2 , + + , 2 5 5 5 2 o ; , 3 2 2 ",
"o X + @ < 2 2 2 2 2 4 2 2 2 2 1 4 5 2 2 4 5 5 4 3 2 4 4 4 4 3 4 3 3 4 3 1 , 2 3 4 6 7 5 2 + o + o o ",
"+ 2 2 5 T 4.4.4.4.3.1.1.1.1.3.3.1.1.4.4.3.1.1.1.1.<.<.1.1.4.4.4.4.4.<.1.4.4.3.1.<.<.<.<.+.q 5 3 , - ",
"> 8 5 2 W e.0.>.>.>.>.2.2.>.>.>.2.>.>.>.>.>.2.2.2.2.2.>.2.>.>.>.>.>.2.>.>.>.>.>.2.>.8.e.,.e 5 6 5 1 ",
"> 5 5 5 O.e.) i p p p p p p p p p p p p p p p p p p p p p p p p p p p p p p p p p u L e.,.r 3 2 1 , ",
"< 5 5 5 W e.Y # & i p p p p p p t # # # # # # # # # # # # # # # # # # # # # # # # # D e.,.e 2 , 2 2 ",
"; 2 2 4 W e.! # l =.>.*.:.>.:.5.^ $ # # i N V v % # # # # # # # # # # # # # # # # # D e.,.q 2 2 2 1 ",
"; 2 2 2 E e.! # v w.&.v } e.e.e.{ $ # # m o.H N y v l & j n t d m s s c v * f m u # D e.,.9 > 2 2 , ",
"+ + o o T e.! # v w.%.f / q.q.e.' $ # # M $.! M S X.I b { P V K ] ' U ` ' L  .] ( $ D e.@., . o + X ",
", , , , E e.! # v w.5.m j b B %.{ $ # # N ..x f n ` ..P ( d b ( ^  .^ S D ..o.L L $ D e.@.5 > > > , ",
"2 5 5 5 W e.! # l $.S t # b ^ V ( $ # # z } ( L m ^ ( x ! ` M ^ P P ^  ._ z K / M # D e.;.9 , , 2 5 ",
"2 4 3 2 E e.! # y m D { * t o.{ ^ $ # # $ & * & $ * * # & * # & * $ H M & # % = $ # D e.;.9 2 2 4 5 ",
"2 2 > , E e.! # c 7.e.=.i $ ' e.] $ $ $ # # # # # # # # # # # # # # * & # # # # # # D e.;.0 2 2 2 2 ",
"2 , : > E e.! # v w.e.L h l U e.{ & # $ # # # $ % % $ * # $ $ $ & C p # * # # # # # D e.;.9 , 2 4 2 ",
", > ; ; R e.! # v w.:.d ( H s m c k & $ # # # v _ B L _ Z M v m D #.G H _ Z $ # # # D e.@.8 > 2 , : ",
"  . X + T e.! # v w.P l 7.-.[ [ K x t # # # # D ^ m ' g } ! A J K ` S o.^ ' * # # # D e.@.2 o o . . ",
"- 2 1 5 W e.! # v 6.m { e.e.e.e.| $ # # # # # S G d } H _ H ` ] G ( G } U G & # # # D e.,.0 , 1 > + ",
": 2 2 5 W e.! # a X.P H :.7.6.7.X.i # # # # # a d # k Z a t N v a h j g V d # # # # D e.,.9 , 2 < , ",
"; 2 5 2 E e.Y # # y a $ a d d d d * # # # # # # # # # # # # # # # # # # # # # # # # D e.,.0 2 2 , > ",
": 2 5 < R e.( t y t t y t t t t t y y y y y y y y y y y y y y y y y y y y y y y y = K e.,.q 1 > > : ",
": 2 > ; R e.7.*.=.=.=.=.=.=.=.=.=.=.=.=.=.=.=.=.=.=.=.=.=.=.=.=.=.=.=.=.=.=.=.=.=.&.6.e.,.q , , 4 1 ",
"; , : , T 9.9.9.9.9.9.9.9.9.9.9.9.9.9.9.9.9.9.9.9.9.9.9.9.9.9.9.9.9.9.9.9.9.9.9.9.9.9.9.@.8 , , ; @ ",
"o o X X 3 0 8 9 0 9 9 0 q q q 0 9 9 9 8 8 0 0 0 0 w e q q 0 0 0 8 0 0 8 0 q q w q 0 0 0 7 O o o X o ",
"2 2 2 2 1 ; X - 1 2 1 , , 1 2 , , , , o + , , , 1 2 < 2 2 2 , , o : , , , , 1 2 1 , , , o o , < 2 2 ",
"2 2 5 8 4 , + > 2 2 < 1 2 2 2 4 5 4 2 + ; < , , 4 4 2 1 , < , 2 - > 2 1 2 5 5 5 2 2 2 3 ; ; 2 2 2 , ",
", 2 5 5 2 2 + < , , , 2 2 , 2 < 3 2 2 + ; 2 2 2 2 2 < , ; , > 2 - 1 4 3 2 2 3 5 2 1 2 2 @ > 5 3 < , ",
", < > , 1 , X > < 2 5 3 1 , > - : , ; o ; , , 1 > ; > , , , > , + , 2 2 , , 1 2 , 1 5 2 + : 5 2 1 2 ",
", , 1 2 , > o > 1 < 4 2 4 2 , , , < 1 + - , , > : : ; , 2 2 , > o , 2 , ; > < , < < , ; + , 4 , : 2 ",
"2 1 2 2 , , o > , , , < 1 2 2 2 1 2 , o - 2 , , < , > > < > , , o , 2 2 1 1 2 , > , > : o ; , - ; < ",
"o X X o o o X o + X . . X o o + o o X X o o o X o o o o o X o X X o o o o + X X X o o o o o o X o o ",
"+ > , 2 2 1 2 2 , 1 , ; o : 2 5 2 , > , > > , , : o , , 2 1 1 1 , 2 2 2 2 < + ; , : > 2 2 , , , , : ",
"> 5 1 2 5 7 5 5 5 5 2 > o , 5 3 , , 2 2 2 2 , 1 , + 3 2 5 2 2 4 2 5 5 3 2 2 + 1 2 2 , 2 , 2 2 2 2 2 ",
"; 2 1 2 2 3 3 3 > , , ; o 2 2 , < , , , 2 2 1 , ; o > 1 3 2 3 2 , 1 3 2 , : + > 2 2 , , > < 1 1 < 1 ",
"@ 5 2 ; ; 1 5 5 , , < > O 2 2 2 , , < , , , , > - + 1 1 2 , , > , , < 1 : ; o > 1 2 , , , < 1 1 , ; ",
"; 2 1 , > , < 1 , , 1 , - 1 , ; > 2 5 , < 2 , , : @ 2 2 1 5 , > < , - ; , , + , 2 2 ; 1 2 4 1 > 2 @ ",
"- 1 2 2 2 2 2 , 2 2 5 2 + , , : > 2 4 ; ; < 1 1 > - 4 2 2 2 > 2 4 > : > , 2 + , 2 2 2 4 2 , , 2 2 : ",
"+ , > ; , < , ; , , > ; o - ; , > ; - ; - ; > ; O o : ; > ; ; > < , < > > > X - , ; , : + - : > , - ",
"+ o X o X X X X . . . . o o . o o . o X X . X X o o X . X o o . X o + X . X X X .   X . X .   . X o "
};
