/* XPM */
static char *f836746d4a344ae58575f0d9672f01885WkNhvj0U76oG9wV[] = {
/* columns rows colors chars-per-pixel */
"50 50 147 2 ",
"   c #2F2D29",
".  c #302F2B",
"X  c #33312E",
"o  c #363531",
"O  c #383733",
"+  c #3A3936",
"@  c #3E3C3A",
"#  c #403F3C",
"$  c #42413E",
"%  c #454442",
"&  c #484745",
"*  c #4A4946",
"=  c #4D4C4B",
"-  c #504F4D",
";  c #51514F",
":  c #51504F",
">  c #52504E",
",  c #52514E",
"<  c #52514F",
"1  c #51504F",
"2  c #515150",
"3  c #525150",
"4  c #525250",
"5  c #535250",
"6  c #525251",
"7  c #535251",
"8  c #535352",
"9  c #545250",
"0  c #545351",
"q  c #545352",
"w  c #555352",
"e  c #555451",
"r  c #545452",
"t  c #555452",
"y  c #545453",
"u  c #555453",
"i  c #555553",
"p  c #565453",
"a  c #565553",
"s  c #555454",
"d  c #555554",
"f  c #565554",
"g  c #575554",
"h  c #565654",
"j  c #575654",
"k  c #565655",
"l  c #575655",
"z  c #575755",
"x  c #575656",
"c  c #575756",
"v  c #555453",
"b  c #585755",
"n  c #595755",
"m  c #585756",
"M  c #585757",
"N  c #585756",
"B  c #585856",
"V  c #595856",
"C  c #585857",
"Z  c #595857",
"A  c #595957",
"S  c #5A5957",
"D  c #595857",
"F  c #595858",
"G  c #595958",
"H  c #5A5958",
"J  c #5B5958",
"K  c #5A5959",
"L  c #5A5A58",
"P  c #5B5A58",
"I  c #5A5A59",
"U  c #5B5A59",
"Y  c #5B5B59",
"T  c #5B5A5A",
"R  c #5B5B5A",
"E  c #5C5A59",
"W  c #5C5B59",
"Q  c #5C5B5A",
"!  c #5D5B5A",
"~  c #5C5B5B",
"^  c #5D5C5A",
"/  c #5C5C5B",
"(  c #5D5C5B",
")  c #5E5C5B",
"_  c #5D5C5C",
"`  c #5D5D5C",
"'  c #5E5D5C",
"]  c #5E5D5D",
"[  c #5F5E5C",
"{  c #5E5E5D",
"}  c #5F5E5D",
"|  c #5F5F5D",
" . c #5F5E5E",
".. c #5F5F5E",
"X. c #5C5B5A",
"o. c #605F5D",
"O. c #605F5E",
"+. c #615F5E",
"@. c #605F5F",
"#. c #605F5E",
"$. c #60605E",
"%. c #60605F",
"&. c #61605F",
"*. c #61605F",
"=. c #606060",
"-. c #616060",
";. c #616160",
":. c #626160",
">. c #626161",
",. c #636260",
"<. c #626261",
"1. c #636261",
"2. c #636262",
"3. c #636362",
"4. c #646362",
"5. c #646363",
"6. c #646463",
"7. c #656463",
"8. c #656464",
"9. c #656564",
"0. c #666564",
"q. c #666565",
"w. c #666664",
"e. c #676664",
"r. c #666665",
"t. c #676665",
"y. c #676666",
"u. c #676766",
"i. c #636362",
"p. c #686766",
"a. c #686767",
"s. c #686867",
"d. c #696867",
"f. c #686868",
"g. c #696968",
"h. c #6A6968",
"j. c #6A6969",
"k. c #6A6A69",
"l. c #6B6A69",
"z. c #6A6A6A",
"x. c #6C6C6B",
"c. c #6D6C6B",
"v. c #6F6E6D",
"b. c #6F6E6E",
"n. c #6A6969",
"m. c #706F6E",
"M. c #727170",
/* pixels */
"+ = * = f w = < - < ( % O & < u R O.1.1.O.9.4.( 9._ @ < Q Q 1.V u Q O.f 6 < = @ V R V u V f * * = o ",
"% _ R - Q 1.%.1.f R ( R * 7.j.4.p.m.b.9.s.M.x.x.j.7.% ( 7._ R 1.9.9.7.%._ 9.1.$ p.9.1.( %.7.1.1._ & ",
"* m u = < m _ _ R 6 _ V % 1._ ( < m 7.= V O.u R 6 u # < %.9.* 6 _ f f = - 1.R O Q 4.V m 6 < R R u * ",
"% O.6 6 u R _ Q _ f ( % % _ Q w % * ( V m f 6 - m f @ V j.s.j.9.%.R f R _ u = @ u %._ 1.f * 6 V _ * ",
"@ V ( O.= u %.u & = R = * _ = = R < < u 6 6 * 6 = = @ _ 9.4.( R < * = w = & * $ ( u V f ( _ %.1.1.$ ",
"% _ V & = R _ R = 6 f $ & u < 1._ _ = = m m w _ R u @ R 4.R R f = 6 _ ( f R - $ ( u - V Q 6 f f _ & ",
"+ % $ @ $ # % + @ % + o + + % % @ @ O @ @ @ + @ + o + + O + @ + $ $ $ @ % % + + # = % $ @ + $ # $ # ",
"6 * % $ & + X % * % % < * % * * = * @ o @ # $ # - = * = - * = @ o % * - * * < u = & % $ o % * % & * ",
"( R 7._ 1.- % 9.b._ R %.s.1.9.1.1.j.Q # O.R 7.9.j.j.4.1._ R _ R % x.p.9.R _ s.V R O.9.R @ %.j.p.%._ ",
"u w - 9.m = * Q u w V < _ ( _ R f V = + R f m R f %.R V R < m u $ V _ 1.R f w w %.9.%.V @ u _ m f = ",
"( * = 6 = & & %.6 = = = V p.9.7.%.w * @ m 6 - = _ 9.p.Q R R 6 * @ Q V m R R - < O.1.R 6 + m 1.* & f ",
"u f < * - - + < - = 6 f R R u R 6 = * @ 6 f * - Q f = u R f & $ @ m R m V u % = = = f 6 + f 6 6 V R ",
"1._ R 1.( * + 6 < R _ _ _ _ = % u f & # 9.f 6 f ( R = f R = 6 = + f Q 6 % * f Q _ R 9.f o = 6 4._ _ ",
"% o $ % $ o o @ + @ % $ @ # + O % & o o % % % $ $ # & % % @ @ @ + @ % @ . . # $ & - = # o + + $ @ $ ",
". & * - u < u = = = & @ X @ * = * % & = = * % = $   @ % @ % & = = = * % = % o o # * = = - - = * @ X ",
"= x.7.Q O.j.9.1.9._ R O.* u _ 1.Q 6 6 7.1.R R 9.9.$ f f 6 Q _ j._ O.m _ _ R * % _ _ 9.9.7._ j.9.9.= ",
"% O.R f m R u = < * = ( % * V = = u R 6 6 6 f f R @ = R f Q 6 = - $ $ = w u $ * w u < R 4.R R R < & ",
"- %.Q %._ O.= @ = = * u $ * f 6 m f R f f < f f w @ R R < = * = u < = * * = @ % 6 u m 7.1._ - * R - ",
"* w f V %.f = f = 6 m 6 $ w 6 6 f = = u = * < 6 - @ = = = < = _ R _ R _ ( 6 $ % 6 f = < R f V 6 f = ",
"% V Q R w w V f ( f f = @ = ( ( u f R m * & = R 6 + 6 R m 6 R R * V _ R R u @ % _ 1.u f 1.u 6 f _ = ",
"@ $ + + + @ @ @ @ @ $ + X O $ @ o X $ $ @ @ + @ @ X + + + @ @ + + % O o $ O   o * % $ o @ X O $ # o ",
"* $ # $ O   O % & $ * = < - % $ & @   @ % % % * & % % % # % % % o @ * & $ & 6 * % * & % X O $ @ $ % ",
"f 1.1._ V @ _ 1.V f ( x.p.R Q V V f + O._ = m R _ R R Q j.9.V ( % = w = = R 9.( O.( u 6 % = f u m _ ",
"6 R ( u - + w = f f R j.%._ f & % * + R 6 u = w m w = % R V 6 6 # % 6 - < f m w & u = = O = 6 - R _ ",
"6 f = = < @ % % = m _ R m m = = 6 = @ * 6 - * < = = 6 6 f f f V @ = w w m m f = = f f 6 @ < R w R u ",
"w = % * 6 + & f < * V u u # % u u < O = f < = w 6 f _ V % % $ = + = R w - % O $ f f = = @ = 6 6 R f ",
"w < * % $ + 6 R 6 = = = * < f - = = o R _ f f f f _ f = & < V R + & = < < = * f R V * = @ - - _ u < ",
"X X X o o o $ @ o o X X o X X + O o . O + o + + + + o X @ + + $ o o X + O O % # O . X O o o @ + X o ",
"+ = = 6 V f f 6 = = f f @ $ Q V f * = f < = - < - $ + = u w - 6 f w 6 w - - o $ V R w = f = = = % o ",
"= R f O.O.6 R m = 1.R R & & m f f _ O.1.R < R R 1.& % ( 1.1.f ( u V ( _ _ 1.* % Q 1.4.R f < < w w & ",
"% u f m * = f = 6 f & = % & f u * = 6 = u 6 w u f $ @ = w < 6 O.f u f 6 ( V $ @ u u = = V = R m = % ",
"& R 1.6 # = < % 6 % = f % = %.= = f * f R f w V - @ % f 6 R 1._ ( V m = = = o % f 6 < $ & f f * * % ",
"& f = # * Q = < f 6 * V & % R = < u f w V 6 ( R R % * 7.V R m = = = % - u V % % 6 = w & 6 f * = _ = ",
"& w * = & = f R = 6 R V @ @ V 6 < = = w u f u f ( @ @ f ( - $ & 6 * & 6 O.( $ @ $ = f f < < f 6 = # ",
"o o o o X X O + X X + X . X O X X . X o X X X o o o o X O X X X o + X X o o o o o O O O X o + o X o ",
"6 < < = = % o # 6 6 < = = w 6 = * = = o # = < = - R w f 6 w = = O * - * = = 6 m 6 = = = o + * = w u ",
"V m %.7.Q 6 + = Q V u w f f R R R ( R + * u < - _ ( 6 u < f < f @ - m < f _ 1.O.m u f _ # & u f R = ",
"= m %._ f u @ w = = * u < = u u ( f f + & f 6 6 u u 6 * % = * u @ w R f f V R V f - < u + = Q V = = ",
"= 6 & * u < o = = 6 _ R < = = # * 6 % o & = 6 u = & * = * = & < @ - R w - = u R = u %.u + = _ u < 6 ",
"= = - 6 * * o = f - _ f R 6 * * * = 6 + % = * * % % % < u f = * O - 6 * % * - = < < * * @ 6 _ = * f ",
"m f V _ < w @ - 6 - < m f R m R f R f + % R 6 6 f 6 = = u = f 6 o f V R w u R < < < = * + - < $ & m ",
"+ o X o + O X O @ o   X o + + @ O O X X + @ O X O @ O + O X o X X + + o O + o X o + + o o + o X O + ",
"o % = = = * 6 = * * = @ o % < f - = & = & % = * # o * * - = = = = = - < - = o % * % * 6 u * * * * # ",
"= 1.6 V ( 9.1.1.9.9.m = o w 7._ - 6 V f V w 6 f 6 # 1.R O.f R Q m 9._ ( ( V + R V f < V < f R R R = ",
"% u = f R R f f * = = % o u < * < = < = u 6 - = $ + = 6 V u R f = w V < = * @ = V w * = * 6 6 - 6 = ",
"@ ( w $ % 6 %.1.* < 6 * + V V f = = - = = = < * $ @ w < u = 6 * = * f w & % O = 6 6 6 = = = < < = % ",
"% R < = & = = u = * - = @ 6 = & * f Q = 6 f = = % # R f < _ = & < = @ % = = + 6 m < $ < V ( < * u O ",
"$ 6 V R R 6 f - 6 f _ f @ 6 = % & V _ % % w 6 f * % _ m f f * R R % % = - f + f u u V _ u = < u R $ ",
"@ w = % u f < * w < - * o % * < - % % % % * = & + @ = * - & % = u 6 u = = = X * < * < * @ & = < = @ ",
"@ + X O X X X X X X X X + + X O O X O O O o X X + O X X o + O X X O @ X X X o X   X O X o X   X X @ "
};
