/* XPM */
static char *_0f107c013c44a5bba910bd2dceffb0a[] = {
/* columns rows colors chars-per-pixel */
"64 64 242 2 ",
"   c #0D0A07",
".  c #130E0B",
"X  c #181206",
"o  c #15120C",
"O  c #19150B",
"+  c #1C1A0D",
"@  c #1A1714",
"#  c #1D1A13",
"$  c #221E0C",
"%  c #221D13",
"&  c #241E17",
"*  c #1F2014",
"=  c #292517",
"-  c #24221B",
";  c #342B1B",
":  c #362A1B",
">  c #2D2B24",
",  c #332C24",
"<  c #393426",
"1  c #3C3B2B",
"2  c #3A3634",
"3  c #44341A",
"4  c #453A29",
"5  c #4B3D33",
"6  c #5F411A",
"7  c #69471B",
"8  c #79481B",
"9  c #7E511E",
"0  c #4A452D",
"q  c #59462B",
"w  c #5A452C",
"e  c #485E25",
"r  c #4C5F28",
"t  c #4A4737",
"y  c #574837",
"u  c #59533B",
"i  c #694926",
"p  c #6C4B25",
"a  c #634A2D",
"s  c #764E25",
"d  c #6C502E",
"f  c #77542C",
"g  c #7C542D",
"h  c #644C33",
"j  c #664C36",
"k  c #624D3C",
"l  c #6B5335",
"z  c #64523C",
"x  c #6A563A",
"c  c #7A5633",
"v  c #7B5A35",
"b  c #745638",
"n  c #735B3D",
"m  c #7C5D3D",
"M  c #4C6426",
"N  c #4E6428",
"B  c #536D27",
"V  c #52642A",
"C  c #55692A",
"Z  c #57692C",
"A  c #567027",
"S  c #5A712C",
"D  c #5D7928",
"F  c #5C6A33",
"G  c #617E2A",
"H  c #697C2D",
"J  c #767C2D",
"K  c #666D37",
"L  c #697538",
"P  c #777839",
"I  c #5A4C48",
"U  c #595446",
"Y  c #54504C",
"T  c #674E46",
"R  c #695847",
"E  c #795747",
"W  c #745D43",
"Q  c #7A5E43",
"!  c #7C5C4C",
"~  c #624E51",
"^  c #695957",
"/  c #7C5C52",
"(  c #7C5D58",
")  c #6D6E45",
"_  c #746245",
"`  c #7B6244",
"'  c #75624B",
"]  c #7B644C",
"[  c #79694E",
"{  c #767843",
"}  c #6C6659",
"|  c #7B6651",
" . c #7C6C54",
".. c #756758",
"X. c #7C6D5A",
"o. c #7A7055",
"O. c #7E715C",
"+. c #746B63",
"@. c #756967",
"#. c #7C6D64",
"$. c #7C7463",
"%. c #787467",
"&. c #7B746B",
"*. c #7D7A6C",
"=. c #7B7572",
"-. c #7D7A73",
";. c #7D7B78",
":. c #8C521E",
">. c #845424",
",. c #8C5423",
"<. c #895327",
"1. c #84552B",
"2. c #88572B",
"3. c #8D5C2C",
"4. c #965B26",
"5. c #935C2B",
"6. c #9B5E2B",
"7. c #825D36",
"8. c #8B5C33",
"9. c #A15E27",
"0. c #97612D",
"q. c #9D622C",
"w. c #84623D",
"e. c #8C633B",
"r. c #9C6533",
"t. c #93653C",
"y. c #98683A",
"u. c #8D7736",
"i. c #A46327",
"p. c #A3632B",
"a. c #AA642D",
"s. c #AC6A2D",
"d. c #B26C2C",
"f. c #B96B2C",
"g. c #BB722E",
"h. c #A26633",
"j. c #A36B34",
"k. c #AC6B32",
"l. c #A96B37",
"z. c #B46C34",
"x. c #B76D36",
"c. c #AB753B",
"v. c #B47132",
"b. c #BB7235",
"n. c #B7773C",
"m. c #BC743A",
"M. c #C17435",
"N. c #C27638",
"B. c #C57B3B",
"V. c #CB7D3C",
"C. c #835E47",
"Z. c #805F55",
"A. c #826445",
"S. c #886545",
"D. c #8B6946",
"F. c #826549",
"G. c #836B4C",
"H. c #8A6B4C",
"J. c #926B44",
"K. c #976749",
"L. c #936E4B",
"P. c #8A7947",
"I. c #98734A",
"U. c #9A724C",
"Y. c #826454",
"T. c #826B53",
"R. c #8A6C52",
"E. c #83625B",
"W. c #836D5B",
"Q. c #8A685C",
"!. c #9B6453",
"~. c #98695A",
"^. c #877656",
"/. c #83725C",
"(. c #977856",
"). c #A16C4A",
"_. c #A87747",
"`. c #B77C44",
"'. c #A76A58",
"]. c #B36D56",
"[. c #A77956",
"{. c #B4725A",
"}. c #886863",
"|. c #996C64",
" X c #837463",
".X c #8A7564",
"XX c #897966",
"oX c #81766B",
"OX c #83796C",
"+X c #937767",
"@X c #9B7463",
"#X c #937C63",
"$X c #817672",
"%X c #827C73",
"&X c #837E7C",
"*X c #AC7C62",
"=X c #C67D40",
"-X c #65842B",
";X c #6C872C",
":X c #6A8B2C",
">X c #74862D",
",X c #6F912D",
"<X c #70922D",
"1X c #778235",
"2X c #7E8044",
"3X c #8E8536",
"4X c #A4853F",
"5X c #CD803D",
"6X c #86824E",
"7X c #8A8255",
"8X c #978855",
"9X c #A88744",
"0X c #BC8244",
"qX c #B88548",
"wX c #A6865B",
"eX c #B69059",
"rX c #988568",
"tX c #848077",
"yX c #83817C",
"uX c #998674",
"iX c #A88766",
"pX c #A7936A",
"aX c #B8956B",
"sX c #B48F71",
"dX c #A99577",
"fX c #C68445",
"gX c #C58B4C",
"hX c #CB8C4C",
"jX c #CD8D4E",
"kX c #CD9153",
"lX c #C7945B",
"zX c #D2975A",
"xX c #C49865",
"cX c #D49B62",
"vX c #C59E71",
"bX c #D5A36B",
"nX c #C8A475",
"mX c #D7A875",
"MX c #DEB27F",
"NX c #817E81",
"BX c #848282",
"VX c #D3AE81",
/* pixels */
"<X<X<X<X<X<X<X<X<X<X<X<X<X<X,X:X:X:X:X:X:X:X:X:X:X:X:X:X:X:X:X-XG G G G G G G G G G G G G G G -X:X:X:X:X:X:X:X:X:X:X:X:X:X:X:X:X",
"<X<X<X<X<X<X<X<X<X<X<X<X<X<X,X:X:X:X:X:X:X:X:X:X:X:X:X:X:X:X:X-XG G G G G G G G G G G G G G G -X:X:X:X:X:X:X:X:X:X:X:X:X:X:X:X:X",
"<X<X<X<X<X<X<X<X<X<X<X<X<X<X,X:X:X:X:X:X:X:X:X:X:X:X:X:X:X:X:X-XG G G G G G G G G G G G G G G -X:X:X:X:X:X:X:X:X:X:X:X:X:X:X:X:X",
"<X<X<X<X<X<X<X<X<X<X<X<X<X<X,X:X:X:X:X:X:X:X:X:X:X:X:X:X:X:X:X-XG G G G G G G G G G G G G G G -X:X:X:X:X:X:X:X:X:X:X:X:X:X:X:X:X",
"<X<X<X<X<X<X<X<X<X<X<X<X<X<X,X:X:X:X:X:X:X:X:X:X:X:X:X:X:X:X:X-XG G G G G G G G G G G G G G G -X:X:X:X:X:X:X:X:X:X:X:X:X:X:X:X:X",
"<X<X<X<X<X<X<X<X<X<X<X<X<X<X,X:X:X:X:X:X:X:X:X:X:X:X:X:X:X:X:X-XG G G G G G G G G G G G G G G -X:X:X:X:X:X:X:X:X:X:X:X:X:X:X:X:X",
"<X<X<X<X<X<X<X<X<X<X<X<X<X<X,X:X:X:X:X:X:X:X:X:X:X:X:X:X:X:X:X-XG G G G G G G G G G G G G G G -X:X:X:X:X:X:X:X:X:X:X:X:X:X:X:X:X",
"<X<X<X<X<X<X<X<X<X<X<X<X<X<X,X,X:X:X:X:X:X:X:X:X:X:X:X:X:X:X:X-XG G G G G G G G G G G G G G G -X;X:X:X:X:X:X:X:X:X:X:X:X:X:X:X:X",
"<X<X<X<X<X<X<X<X<X<X<X<X<X<X<X,X:X:X:X:X:X:X:X:X:X:X:X:X:X:X:X-XG G G G G G G G G G G G G G G -X;X:X:X:X:X:X:X:X:X:X:X:X:X:X:X:X",
"<X<X<X<X<X<X<X<X<X<X<X<X<X<X,X,X:X:X:X:X:X:X:X:X:X:X:X:X:X:X:X-XG G G G H H H G G G G G G G G -X;X:X:X:X:X:X:X:X:X:X:X:X:X:X:X:X",
"<X<X<X<X<X<X<X<X<X<X<X<X<X<X,X:X:X:X:X:X:X:X:X:X:X:X:X:X:X:X:X-XG P P.K.).).[.8XH G G G G G G -X;X:X:X:X:X:X:X:X:X:X:X:X:X:X:X:X",
"<X<X<X<X<X<X<X<X<X<X<X<X<X<X,X:X:X:X:X:X:X:X:X:X:X:X:X:X:X:X;XH P.(.!.K.!.!.'.*X2XG G G G G G -X;X:X:X:X:X:X:X:X:X:X:X:X:X:X:X:X",
"<X<X<X<X<X<X<X<X<X<X<X<X<X<X,X:X:X:X:X:X:X:X:X:X:X:X:X:X:X;XH (.[.!.!.'.'.'.'.[.7XG G G G G G -X;X:X:X:X:X:X:X:X:X:X:X:X:X:X:X:X",
"<X<X<X<X<X<X<X<X<X<X<X<X<X<X,X:X:X:X:X:X:X:X:X:X:X:X:X:X;X1X(.~.K.!.'.'.].].].{.wXG G G G G G -X:X:X:X:X:X:X:X:X:X:X:X:X:X:X:X:X",
"<X<X<X<X<X<X<X<X<X<X<X<X<X<X,X:X:X:X:X:X:X:X;X;X;X;X>XJ u.(.~.K.!.!.!.'.].{.{.{.iXH G G G G G -X-X:X:X:X:X:X:X:X:X:X:X:X:X:X:X:X",
",X,X,X,X,X,X,X,X,X,X,X,X,X:X,X;X;X>X1X1X>X>XJ J J u.y._.[.K.S.K.!.!.!.'.].].].{.iXL D D D D D D -X:X;X;X;X;X;X;X:X:X:X;X;X;X;X;X",
":X:X:X:X:X:X:X:X>X>X3X3X4X9X9X9XqXqX0X`.`.n.`.`.z.v.`._.K.C.H.~.~.~.'.'.'.].].'.*XK C B B B B A -X-X-X-X-X-X-X-X-X-X-X-X-X-X-X-X",
":X:X:X:X;X>X>X3Xu.c.0XfXfX=XB.B.B.V.5XV.V.M.f.b.a.h.K.S.C.C.Y.~.~.|.|.'.'.'.'.'.*XK M M M M N B G -X-X-X-X-X-X-X-X-X-X-X-X-X-X-X",
":X:X;X>X3X4XqX`.n.=X=X=X=XB.B.B.B.B.5X5XV.g.d.4.,.8.v E Z.Z.E.Q.Q.Q.|.|.|.|.|.|.*X{ M M M M M B G -X-X-X-X-X-X-X-X-X-X-X-X-X-X-X",
";X>X3X9X0Xm.m.z.k.x.m.m.z.b.M.N.M.M.M.V.V.g.d.6.3.g b E ! / Z.E.E.}.}.|.|.|.|.@XiX7XN M M M N B G -X-X-X-X-X-X-X-X-X-X-X-X-X-X-X",
"3X9XqXm.m.m.m.z.z.z.z.z.z.z.z.m.b.z.d.b.M.N.d.p.3.s f E ! Z.Y.Y.E.}.}.}.}.}.}.@XsXwXV M M M N B G -X-X-X-X-X-X-X-X-X-X-X-X-X-X-X",
"gXfXB.m.m.b.m.z.z.k.k.a.z.k.a.z.z.k.a.s.b.N.g.p.0.>.g b E / / / ( ( ( E.}.}.Q.@XsXpXZ M M M N B G -X-X-X-X-X-X-X-X-X-X-X-X-X-X-X",
"fXV.N.m.m.b.b.z.z.k.z.a.a.k.a.p.p.p.q.6.v.=XfXfXk.6.t.S.! E ! / / ( ( E.E.}..X@XsXaXZ M M M N B G -X-X-X-X-X-X-X-X-X-X-X-X-X-X-X",
"B.M.M.N.m.b.s.d.d.z.d.k.p.p.p.p.6.4.4.5.q.n.`.fX0Xc.y.D.! E ! Y.Y.E.Q.}.+X+X+X@XsXvXZ M M M N B G -X-X-X-X-X-X-X-X-X-X-X-X-X-X-X",
"B.b.M.M.m.b.d.s.s.s.s.v.k.9.p.p.6.,.:.,.5.h.c.v.n.l.t.J.A.F.F.! Y.Y./ ! Y.E.Q.@XaXnXF M M M M B G -X-X-X-X-X-X-X-X-X-X-X-X-X-X-X",
"5XfXB.N.m.b.z.z.s.s.s.k.z.v.p.p.6.,.8 9 >.0.r.l.l.y.J.S.A.A.F.` F.Y.] Y.Y.Y.R.@XvXnXK M M M N B G -X-X-X-X-X-X-X-X-X-X-X-X-X-X-X",
"fXhXV.M.b.v.v.z.s.s.s.s.s.k.k.q.4.,.8 8 >.2.y.y.y.J.e.7.m A.F.F.F.G.T.R.R.T.H.(.xXmXP M M M M B G -X-X-X-X-X-X-X-X-X-X-X-X-X-X-X",
"5XfXB.g.b.z.k.a.p.k.k.k.p.p.k.k.h.6.:.8 2.8.e.t.y.t.t.w.A.A.A.F.F.F.H.H.G.R.L._.lXmX8XC M M M B G -X-X-X-X-X-X-X-X-X-X-X-X-X-X-X",
"g.V.B.d.d.k.a.p.p.k.k.k.p.6.p.k.l.l.r.>.>.e.t.J.J.I.I.D.A.Q A.A.A.A.A.H.G.H.L.).`.zXnX{ N M M B G -X-X-X-X-X-X-X-X-X-X-X-X-X-X-X",
"g.b.N.v.i.p.p.4.q.p.j.k.p.4.,.h.h.h.j.2.>.7.L.J.J.(.(.(.G.F.F.F.A.A.A.F.H.R.L._.0XgXmXaXK M M B G -X-X-X-X-X-X-X-X-X-X-X-X-X-X-X",
"v.v.d.z.p.4.4.5.4.0.q.h.j.6.,.5.6.r.h.5.1.7.L.H.L.(.(.^.T.] F.A.F.A.` A.F.H.L._.gXkXcXVXpXF M B G -X-X-X-X-X-X-X-X-X-X-X-X-X-X-X",
"i.j.q.h.6.,.>.<.<.>.0.h.l.5.,.5.5.h.h.r.t.e.D.H.R.(.(.^.T.T.G.F.F.A.A.A.S.H.L._.gXkXkXbXMX8XS B D -X-X-X-X-X-X-X-X-X-X-X-X-X-X-X",
",.0.5.r.5.<.1.<.>.9 ,.5.h.q.4.,.0.r.j.r.y.(.L.A.H.(.#X#X.X/. .F.F.F.` F.S.D.L._.gXhXkXzXmXVX8XS B B B B B B B B B B B B B B B B ",
"8.3.5.2.3.5.8.1.8 s s >.0.j.5.>.5.r.j.j.y.[.(.S.H.(.#XrXrX/.T.T.T.F.G.G.G.H.I._.qXgXgXhXcXMXnX1XN M M M M M M M M M M M M M M M ",
"t.8.2.2.y.r.I.1.8 p s g 3.r.r.,.>.3.j.k.j.[.wXS.D.(.rXrXrX X/././.T.T.G.G.H.L._.qXqX0XfXjXbXMXpXZ M M M M M M M M M M M M M M M ",
"2.8.e.2.t.).U.8.7.d f g 2.3.0.>.9 >.0.r.y.[.wXw.w.(.rXrXrX.X/././.T.T.F.A.S.J._.qXqXqX0XgXkXmXnX{ N M M M M M M M M M M M M M M ",
"g c v J.t.I.I.w.w.7.c c g 8.2.g 7 s 1.3.t.I.wXJ.v H.rXrXXX X/.O.O. . .[ ` ` S.y._._.`.`.0XqXxXVX8XZ M M M M M M M M M M M M M M ",
"m v v w.U.U.S.A.A.H.m c f c 1.7 7 7 s 1.1.J.wX(.v ` .X X$.X.R y 0 4 q z l l b f g 8.t.y._.qXlXmXnXL M M M M M M M M M M M M M M ",
"c w.D.H.A.(.H.b Q R.` v d d f p 7 7 p g s w.(.(.v n /.oXU = O X ; 4 ; y q w a b m 7.w.D.I._.eXvXVX6XM M M M M M M M M M M M M M ",
"c C.Q F.R.H.G.` x ] F.v p p p p 7 7 i c d n H.R.m Q O.U + o O O + 0 < t 0 0 w l n m m A.S.U.[.aXVX8XV M M M M M M M M M M M M M ",
"C.! F.Q Q T.R.` n n F.A.c i i i i 6 i b b n ` G.[ X.} % X Y - @ o 1 1 , < < 4 w l n ` ] F.H.(.iXnX8XC M M M M M M M M M M M M M ",
"m ] ] T.T. .T.G.n h n F.Q d i p d i i l n n ` [ X.*.U + # o @ o + 1 , # & & ; q x W ' [ T.R.^.rXsXpXZ M M M M M M M M M M M M M ",
"Q ] T./.XX X.XT.Q a l ` ` n a d n l d l ` ` _ | $.*.t < * # O X $ t - # O % ; w x W ' [  .T.W.^.sXpXF M M M M M M M M M M M M M ",
"] ] '  . XXX/./.| l w n ` W l b ` n n n ` ` _ ..*.*.1 t 1 = = = 0 1 # - O = 4 h W ' |  .X.X.O..XiXdXL M M M M M M M M M M M M M ",
"T.' ' [ O.XXXX X .W a h Q Q W W ` ` W n W _ _ ..-.-.< = t t t t 1 = - % % < y x ' |  .X.X./.O./.rXdX{ M M M M M M M M M M M M M ",
"Q W _ W./.X.X.$.O.[ Q l Q Q W W Q ' ` W n _ _ ..&XyXt X . % - % % > % O = 0 u R [  .X.O.O.X.O./.#XpXL M M M M M M M M M M M M M ",
"' [ [  .X./.O.X...' [ | | ' W W W _ _ W x _ _ X.OX=.Y , & - # # - - + & 4 u _ [ |  .X.O. .O.X.W.#XrXL M M M M M M M M M M M M M ",
"' ' | T.X.X.u < & & = 0 '  XX.| W _ ' W x x W _ o...I 1 , > - @ # + = 4 z [  . . .O.O.O.O.O.X. .#XrXK M M M M M M M M M M M M M ",
"' ' ' | R < O X # - @ ; 0 y OXOXX.| Q n l h x h z z y 0 4 < > > , 1 y R o.o.o.o.O.O.O.O.X. . . .#XrXF M M M M M M M M M M M M M ",
"Q ' Q z 3 $ X @ > Y @ = u = y %XOX/.W l l a a a a h w y R U t Y ^ } %.*.$.$.$.$. X X XW.X.X. .T.#X7XF e e e e e e e e e e e e e ",
"W W x 3 3 ; # & # @ o = u - % U +.X.h h a a a a h h k z R } } +.=.tXyXtX%X*.OXOXoX X X/.W.W.W.W.rX^.V e e e e e e e e e e e e e ",
"n n l 3 u 4 % @ # # O 1 t X % < y T a a a a h h j y k R ' &.%X&X;.-.-.&X&X%X%XOXOXXX/.W. .Y.W.#XrX) r e e e e e e e e e e e e e ",
"x h h y u U < $ + = < t = o > , < 5 w h h h R R R T k ^ +.&XyX&X-.&.&.;.;.;.*.&.$. XX.X. .Y.W.rXrXF e e e e e e e e e e e e e e ",
"a w z R 4 u u 0 0 0 t > o > - & , 4 w h k z R R R R R ^ %.yXyX-.%.%.=.=.=.&.&.OXOX X X X X.XrXdX^.N e e e e e e e e e e e e e e ",
"l x W R t = ; 4 0 , + o @ @ @ - t y k T k z k T T k y } &XyXBX;.=.-.&X&X&X$X&.$. XX.X...X..XdXpXK e e e e e e e e e e e e e e e ",
"n n W R 4 - o o o . o o . o # < ~ } ^ R T k k T T T I &.&XBXBX;.=.=.=.&.=.-.%XoX XX.X.X. XuXdX7XV e e e e e e e e e e e e e e e ",
"n W n y ; o . .   .       # 2 Y +.&.+.^ ~ y 5 T R R ^ ;.NXBX&X-.=.=.-.%X&X&X%X%XOX X X.XuXdXrXL M e e e e e e e e e e e e e e e ",
"n n n w ; X         . . # 5 ^ +.*.%X$X@.@.^ ~ ~ T ~ @.&XNXNX;.-.;.-.%X&X%X$XoXoXoX X+XuXdXrX{ B M e e e e e e e e e e e e e e e ",
"n n n l q ; = ; ; ; 4 t U } +.-.%XtX&X%X&X&X;.@.^ ~ ^ &.=.;.-.&.&.*.=.&.&.&.OXoX XX./.^.^.{ S B M e e e e e e e V Z K P P.8X8X8X",
"n W Q _ W x h z z ' ..oX-.tX%X*.%.-.yXyXBXBXBX&X@.~ ~ ^ +.@.&.&.&.=.=.$XOXOXOXOX X/.^.{ L S B B M e e e e e V P 9XeXxXbXmXmXmXbX",
"Q ] ] ] ` ] [ T.W. XoXOXtX%X%.%.%.-.yXyXBXBX&X=.@.~ I ^ } +.#.#.#.&.&.OXOXoXoXoX.X^.{ L S A B B M e e e V P wXkXkXkXkXzXcXzXzXzX",
"' ] Y.Y.T.T.W.W./. XOX%X%X*.&.%X%X-.-.;.&XyX&X=.@.^ ^ +.+.....X.X.#.#. X.XXX.X+X#X^.L S S A B B M e K 8XaXcXcXkXhXhXhXkXkXkXjXgX",
"| ] T.T. .T././. XOXOXOXOX&.%X*.%.%.-.&X&X%X=.&.@.+.+.#. X XX.W.X.W.X.W. X.X.X+XrX^.L S S A B B F 8XnXmXbXbXcXzXhXfXhXhXkXkXgXgX",
"' [ | [  . . . .X.$.$.$.$.%.$.$.%.*.*.*.%.%.$.....#.X.X.X. .| [ [ [ [ [ /. ..X.XrX7XL S A A A P aXnXnXxXxXxXeXeX0Xc.c.0XqXqX_._."
};
