/* XPM */
static char *_4b6638af8f54371ada4df40c7817735iki9elD6MVqPyLXg[] = {
/* columns rows colors chars-per-pixel */
"50 49 220 2 ",
"   c #141724",
".  c #151825",
"X  c #191926",
"o  c #171828",
"O  c #1A1A2B",
"+  c #1D1D34",
"@  c #201F39",
"#  c #24232A",
"$  c #2A2A2D",
"%  c #33312E",
"&  c #272632",
"*  c #2C2C32",
"=  c #22223E",
"-  c #363532",
";  c #303035",
":  c #383734",
">  c #3A3936",
",  c #36343A",
"<  c #3E3C3A",
"1  c #650B1C",
"2  c #690B1D",
"3  c #6D1827",
"4  c #4E2329",
"5  c #403E3C",
"6  c #513C37",
"7  c #693038",
"8  c #42413E",
"9  c #5A473F",
"0  c #6C483A",
"q  c #774A39",
"w  c #7B503E",
"e  c #232442",
"r  c #28294C",
"t  c #383746",
"y  c #35354B",
"u  c #2B2C53",
"i  c #2F3159",
"p  c #3B3B52",
"a  c #32345E",
"s  c #3D3E58",
"d  c #363863",
"f  c #3D3F6A",
"g  c #703A43",
"h  c #3F416B",
"j  c #454442",
"k  c #484745",
"l  c #4A4946",
"z  c #434349",
"x  c #4D4C4B",
"c  c #5B4D44",
"v  c #504F4D",
"b  c #51504F",
"n  c #5C524C",
"m  c #444454",
"M  c #4B4A56",
"N  c #504F54",
"B  c #555453",
"V  c #595755",
"C  c #595857",
"Z  c #50505B",
"A  c #5C5B5A",
"S  c #75444A",
"D  c #685347",
"F  c #7C5443",
"G  c #755A4A",
"H  c #785848",
"J  c #674E50",
"K  c #665A55",
"L  c #615E5D",
"P  c #745A54",
"I  c #7D604E",
"U  c #61605F",
"Y  c #6D645F",
"T  c #766255",
"R  c #494967",
"E  c #41436E",
"W  c #585162",
"Q  c #444671",
"!  c #474974",
"~  c #4A4C77",
"^  c #4A4C78",
"/  c #575776",
"(  c #605B60",
")  c #646362",
"_  c #686766",
"`  c #686867",
"'  c #6C6B6A",
"]  c #736B66",
"[  c #736F72",
"{  c #767077",
"}  c #814E3B",
"|  c #84533D",
" . c #89563E",
".. c #8F593F",
"X. c #894B40",
"o. c #835642",
"O. c #8C5442",
"+. c #855945",
"@. c #8C5B44",
"#. c #835B49",
"$. c #8D5E49",
"%. c #925C42",
"&. c #9A5E45",
"*. c #925E48",
"=. c #85614E",
"-. c #936047",
";. c #9B6147",
":. c #93614B",
">. c #9B634B",
",. c #856552",
"<. c #8B6554",
"1. c #8A6A58",
"2. c #8F6D5C",
"3. c #936954",
"4. c #9A6B54",
"5. c #946E59",
"6. c #95725C",
"7. c #9B755E",
"8. c #A3664B",
"9. c #A4684C",
"0. c #A96A4D",
"q. c #A46C52",
"w. c #AB6E52",
"e. c #B06E51",
"r. c #A7755B",
"t. c #AC745A",
"y. c #B37355",
"u. c #B37759",
"i. c #BB7B5B",
"p. c #905C64",
"a. c #836864",
"s. c #86746C",
"d. c #9B7965",
"f. c #837972",
"g. c #96787A",
"h. c #A47D65",
"j. c #AA7D64",
"k. c #B87F62",
"l. c #9D816B",
"z. c #8D837C",
"x. c #998277",
"c. c #A88269",
"v. c #BE8263",
"b. c #B38469",
"n. c #B5846A",
"m. c #BB866A",
"M. c #BD896C",
"N. c #A58B78",
"B. c #B68E77",
"V. c #B99379",
"C. c #BA957D",
"Z. c #C1825F",
"A. c #C48564",
"S. c #C88865",
"D. c #C68B6C",
"F. c #C98D6D",
"G. c #C38E71",
"H. c #C98E70",
"J. c #C69175",
"K. c #CB9274",
"L. c #C5957B",
"P. c #CB9579",
"I. c #D19677",
"U. c #D29A7B",
"Y. c #767487",
"T. c #A07D82",
"R. c #8A8486",
"E. c #978B88",
"W. c #9D9289",
"Q. c #9A8F92",
"!. c #989697",
"~. c #9E9495",
"^. c #AC938A",
"/. c #BB9880",
"(. c #A79A96",
"). c #A59B9C",
"_. c #A9A19E",
"`. c #AC9EA3",
"'. c #ACA4A1",
"]. c #B1A7A6",
"[. c #B5ADAC",
"{. c #BEAEB0",
"}. c #BDB3B2",
"|. c #C79D82",
" X c #D69E82",
".X c #C5A38C",
"XX c #CCA48A",
"oX c #D5A184",
"OX c #D8A588",
"+X c #DCAB8E",
"@X c #C7A793",
"#X c #D7AD91",
"$X c #CEB19D",
"%X c #DFB195",
"&X c #DFB59A",
"*X c #E1B396",
"=X c #E2B599",
"-X c #E4BA9E",
";X c #D7B9A5",
":X c #E5BDA2",
">X c #DFC9B8",
",X c #E8C1A6",
"<X c #EAC5AA",
"1X c #EAC7AD",
"2X c #EDCBB3",
"3X c #EBCDB7",
"4X c #EFD2BC",
"5X c #F1D3BC",
"6X c #CEC5C5",
"7X c #DAD5D7",
"8X c #F2D6C0",
"9X c #F4D9C4",
"0X c #F7DECA",
"qX c #E3D9D7",
"wX c #F7E1CD",
"eX c #F8E4D4",
"rX c #EAE8E9",
"tX c #F2EEEE",
"yX c #F7F6F5",
"uX c #FEFDFD",
/* pixels */
"j A C b A L A A V A A B k A _ ) _ ' ' _ ' [ ' ` ` U l A ) A A L ) _ ) U ) _ C l _ _ L A ) ) A A B b ",
"l V V x B A A A V B C V x U U A A U _ V A ) A L C B j V L A x C A C C B B ) B 8 U L C V V A A A B B ",
"k A B x B V A A A V A l k A A B j x A B V V B B B B 5 C _ ) A A A C B B V V x 5 V L A A b l B B V B ",
"8 A A A B V A V v b V l x A B x B x B V B B x B B x < A _ _ ) A V x B V V x k j C V A C A A A ) A v ",
"8 V V x x B A B l x B j l B x V A V x x B b x V B x 8 A ) C V B l x B B x v l k C v b V A B V V V b ",
"5 x l j l l x l k l j > 5 j x b x l 8 j k l l x k 5 > j j k l j k x x x b x < < x b l l j j x x x b ",
"j 8 < > < : - > < < < j 5 > 5 5 5 < - - - > : : < < < 8 8 5 5 : - > < 8 8 8 k k j 8 8 > - < < > < b ",
"A A A C A l j U ` A V A L A U L U A b 8 V V L f.W.z.f.{ ] K L v j ) ) ) V A ) A A A A b 8 A ) U A ` ",
"B B B ) C x l A A V V V U A A A C A x 8 L ] d.XX3X4X:X@XC.j.B.(.E.f.L A V C V B A ) ) B 8 A A A B L ",
"C x x V x l l A b x x x C ) ) U A B K a.N./.#X<X<X<X3X2X#X|.D.XX4X3XW.A V V x B U U C x < A A x x ) ",
"V B x l x x 5 B b x v B A A A A C T l.c.B.XX2XwX8X1X,X<X:X%X+XoX#X,X3XE.V B k v b B V x < V B x B _ ",
"A A V V B l > x x B C C A C l k P h.c.c.V.XX2XwX3X-X=X*X=X=X%X:X=X:X5X;X] l x V B B A l > x b A A ' ",
"v j x v x < : j j l x x l l 8 c 7.c.h.c.n.C.&X5X9X,X*X*X*X=X&X-X2X4X8XeX>Xx.b l B V V j : 8 j x j A ",
"% < 8 j k k l j 8 8 8 > % > 5 D 6.d.7.h.b.L.XX:X8X9X3X:X-X=X-X:X,X5X0X9X0X8XN.5 < j k j k j j 5 - 8 ",
"k ) L A U ) ) A ) A V V j b C G ,.6.7.r.b.G.P.OX*X3XeX9X,X:X:X1X2X2X5X5X2X<X$Xf.V A ) ) L A _ A A B ",
"l A A V C A V B B x v A j x V G ,.2.d.j.b.G.J.P. X=X2X8X3X-X:X5XeX9X2X<X,X:X;X^.V V B A A A A A B B ",
"x A A A A A x 8 l l l B j l n G ,.1.h./.B.M.J.P.P.OX*X,X5X,X-X3XwX5X<X:X&X&X;X^.B B V ) ) A b x B V ",
"x B C A A C x v x v B v 8 b c H ,.3.h.C..XL.L.P.P.P.U.+X,X2X:X1X9X3X,X:X=X#X.Xf.b B b V A V B B V V ",
"j B V V B b B B V B B l < l c H 1.6.d.c.C.@XXXJ.D.H.J. X+X<X1X2X2X:X&X#X#XXXB.V V A x V A B b B V B ",
"8 l j j j j j j k j k 5 - 5 D I 5.6.6.r.j.m.XX|.M.v.J.oXOX*X<X<X%XoX|.|.|.|.c.8 v x l 5 j > j x j l ",
"j < < < - % - < 8 5 j j k k D I 1.5.5.:.>.w.u.M.J.J.D.U.OX+X%X*XOXI.D.M.n.B.l.k j j 8 > % - > > > b ",
"B A A V v < V A V B A _ ) V D G ,.5.3.:.:.>.8.e.v.K.K.H.D.K.U.oXoXI.F.A.t.j.s.V A C B x 5 x B B B ` ",
"B A A V x < B b B V A _ ) K H H ,.3.:.:.:.:.>.>.0.k.K.K.A.A.D.F.F.K.F.A.t.r.Y B x B x l > x v b V ` ",
"B V v x x < j j v V A A C V F $.<.:.:.:.:.q.r.t.q.9.i.v.i.y.y.i.A.F.U.K.u.7.V x x B B x < B V B C ) ",
"B x k l x > k b x x V B B 8 0 $.3.:.:.:.3.7.h.b.m.k.t.9.8.q.w.v.M.m.n.m.b.T < k B B x x < b B B V ) ",
"b x k j 8 > x V b x x x l l D | #.3.:.:.$.+.o.H <.3.:.%.&.&.*.*.#.+. .r.n.T j b V B l l < x x C b ) ",
": : : > : : j 8 > : - - : : 6 q o.3.:.-.$.O.F 6 F q 0 o.8.O.q q 6 =.4.b.m.T j j < : > > : > 8 < - x ",
": j k x B b B x l k x x > 5 n w o.3.-.-.:.:.*.+.o.q w *.A.t.q w $.4.m.P.J.T : j b B x l x l l k > j ",
"l V V A A B C B b A A V j l B H @.-.-.*.:.-.-.-.@.+.@.8.I.H.&. .@.q.K.U.H.Y j l A L L V B v b B x b ",
"j B V V x x B x b B l x j l B D O.*.:.%.*.-.*.@.>.>.*.8.K.K.y.y.y.D.I.F.c.V 5 j B B x b B v V B x v ",
"k V A v 8 x x k v k x B j x A v 9 F :.%.%.%.%.;.8.&.@.w.oX Xy.A.S.i.y.i.1.l : l B b x j x B B l l v ",
"k B v j l V x v B v x B j l V l ; P -.%.%.%.%.;.8.O.o.k.OX+Xu.A.S.y.0.k.K B < k v b x l b B l x V V ",
"k v k l j x b V x b V B < > < # & s.+.O.%...%.&.&. .%.y.K. Xm.y.A.y.i.k.L B < < 8 x b B x v b b l x ",
"> > > > - - > < - > < % # X o o * E.+. .....%.%.%.@.q  .;.>.G.t.i.A.A.5.t > - : : > > > - > < : - l ",
"x x x x x j - < k , # X   . .   * E.2.| ..%.%.O.*.@.+.o.w 4. XJ.y.S.S.a.E R m M l l x j - < l x x L ",
"V V A U V j $ & & o . . . . .   O R.W.o. .%.%.+.$.@.@.+.#.M.F.D.v.A.v.W ~ ^ ^ ~ R R Z N > l b V B A ",
"x V A z & O O o o . . . . . . .   [ _.d.|  .O.o.| o.w q o.>.t.;.q.Z.5.E ! ~ ~ ~ ^ ~ ~ ! R M V V x A ",
"x b t = + O o . . . . . . . . .   N ).(.1.|  .| |  .O.X.O.*.>.9.%.0.J f E ~ ~ ~ ~ ~ ~ ~ ^ ~ W B x U ",
"x x y = @ o . . . . . . . . . .   , ~._.(.,.| | | | } } %.q.w.u.0.<.R h f ! ^ ~ ~ ~ ~ ~ ~ ~ W l x ) ",
"B B y e = + . . . . . . . . . .   $ R._.[.(.<.| | | | *.i.A.S.A.@X}.R E f E ^ ~ ~ ~ ~ ~ ~ E m 8 l ) ",
"> > y r e = O . . . . . . . . . . O { ).].[.).2. .| |  .%.8.w.$XuX7X/ E f h ! ~ ~ ~ ~ ~ E f t : < x ",
"> j p u e = + . . . . . . . . . . . ' ).'.[.[.).a.+.o.#.<.x.(.qXuXrX/ E f f Q ~ ~ ~ ~ ! f f m l k x ",
"l A s r e = + o . . . . . . . . .   ( )._.[.[.[.].s.7 P (.[.}.tXuXtX/ Q f f E ! ~ ~ ~ E f d M B B B ",
"j B p r = e + o . . . . . . . . .   N )._.].[.[.E.7 1 1 g ^.6XuXuXyXY.E f f f h ! ~ Q f d a m b b B ",
"5 C p e = = = O . . . . . . . . .   t ~._.].[.).S 1 2 2 3 g.6XuXuXyXY.E f f f h Q Q h d a a m v x v ",
"j V y = = = = O . . . . . . . . .   ; E._.'.).Q.Q.S 1 2 p.`.].7XuXuXY.E f f f f f f f d i a m x x l ",
"8 b y = = = = + o . . . . . . . . . & R.).~.Q.Q.`.a.1 3 T.{.6X7XtXuXR.h f f f f f f f a u a m B B x ",
"< x y = = = = @ O o . . . . . . . o O { ~.E.Q.Q.~.S 2 3 E.qXuXuXuXuX!.h f f f f f f f a u a m x k x ",
"< > - ; * * ; * * $ $ $ * * $ * $ * * x L K L ) L 6 4 4 J R.!.!.!.!.[ p p p p p p p p y y y , % - x "
};
