/* XPM */
static char *_53c1fbe5e664fd6f5e32e562754e4d73LnF3gyJIYGf8P8U[] = {
/* columns rows colors chars-per-pixel */
"50 48 144 2 ",
"   c #6F5B49",
".  c #715B49",
"X  c #725F54",
"o  c #75614D",
"O  c #78634F",
"+  c #746255",
"@  c #796350",
"#  c #776559",
"$  c #786759",
"%  c #7C6A5D",
"&  c #7E6D60",
"*  c #806E5F",
"=  c #806F61",
"-  c #837264",
";  c #877568",
":  c #897769",
">  c #659B2C",
",  c #689D2F",
"<  c #6B9E32",
"1  c #6AA22E",
"2  c #6DA232",
"3  c #72A535",
"4  c #74A935",
"5  c #79AA37",
"6  c #76A63A",
"7  c #78A73B",
"8  c #77A939",
"9  c #7BAB3B",
"0  c #7EB13B",
"q  c #7C9D56",
"w  c #7F9D58",
"e  c #79A442",
"r  c #7EAC42",
"t  c #81B53C",
"y  c #819F57",
"u  c #829D5E",
"i  c #80AE43",
"p  c #81B145",
"a  c #82A755",
"s  c #86AA57",
"d  c #83A45A",
"f  c #86AA5A",
"g  c #89AC5B",
"h  c #83B153",
"j  c #8CB25B",
"k  c #97A664",
"l  c #99A665",
"z  c #9AA865",
"x  c #87B262",
"c  c #89B665",
"v  c #89B860",
"b  c #89B26E",
"n  c #8FBB6F",
"m  c #9FA773",
"M  c #89B373",
"N  c #8CB679",
"B  c #90BC71",
"V  c #92BF79",
"C  c #A1A975",
"Z  c #7C9197",
"A  c #7E9299",
"S  c #8D9686",
"D  c #909786",
"F  c #939D87",
"G  c #909788",
"H  c #939D89",
"J  c #83989F",
"K  c #929698",
"L  c #999E9F",
"P  c #AF9A85",
"I  c #B09A86",
"U  c #B49D89",
"Y  c #94A285",
"T  c #96A289",
"R  c #99A58A",
"E  c #93BC83",
"W  c #98B588",
"Q  c #93BA8C",
"!  c #8DAD9C",
"~  c #9DA897",
"^  c #9EBE90",
"/  c #98BC9C",
"(  c #A7A38A",
")  c #A8A38B",
"_  c #8297A0",
"`  c #859AA2",
"'  c #8E9EA2",
"]  c #9A9FA0",
"[  c #8CA1A7",
"{  c #8DA3AB",
"}  c #93A1A7",
"|  c #90A7AE",
" . c #91B0A1",
".. c #92B1AE",
"X. c #93ACB5",
"o. c #9BAEB5",
"O. c #95AFB9",
"+. c #95B3B4",
"@. c #9EB0B7",
"#. c #96B1BA",
"$. c #99B5BD",
"%. c #A2ABA2",
"&. c #96C087",
"*. c #96C18A",
"=. c #9DC69E",
"-. c #9EC4A3",
";. c #9FC3AC",
":. c #A3C6BC",
">. c #A7CBBE",
",. c #9AB6C1",
"<. c #9DB9C3",
"1. c #A1BCC6",
"2. c #A3BFC9",
"3. c #A5C3CE",
"4. c #A9C5CF",
"5. c #A6C5D0",
"6. c #AAC6D1",
"7. c #AAC9D3",
"8. c #AACAD5",
"9. c #ADCBD6",
"0. c #ADCCD7",
"q. c #ADCBD8",
"w. c #AFCDD9",
"e. c #B0CEDA",
"r. c #B1D0DB",
"t. c #B1D0DC",
"y. c #B3D3E0",
"u. c #B4D4E0",
"i. c #B5D6E2",
"p. c #B7D7E4",
"a. c #B7D8E5",
"s. c #B8D9E6",
"d. c #B9DAE8",
"f. c #BBDDEA",
"g. c #BCDFEC",
"h. c #BFE1EE",
"j. c #BFE2F0",
"k. c #C1E3F1",
"l. c #C0E5F2",
"z. c #C3E9F7",
"x. c #C6E9F7",
"c. c #C6EAF9",
"v. c #CAEFFF",
"b. c #CBF0FF",
/* pixels */
"v.v.v.v.v.v.v.v.v.v.v.v.v.v.v.v.v.v.v.v.v.v.v.v.v.v.v.v.v.v.v.v.v.v.v.v.v.v.v.v.v.v.v.v.v.v.v.v.v.v.",
"v.v.v.v.v.v.v.v.v.v.v.v.v.v.v.v.v.v.v.v.v.v.v.v.v.v.v.v.v.v.v.v.v.v.v.v.v.v.v.v.v.v.v.v.v.v.v.v.v.v.",
"v.v.v.v.v.v.v.v.v.v.v.v.v.v.v.v.v.v.v.v.v.v.v.v.v.v.v.v.v.v.v.v.v.v.v.v.v.v.v.v.v.v.v.v.v.v.v.v.v.v.",
"v.v.v.v.v.v.v.v.v.v.v.v.v.v.v.v.v.v.v.v.v.v.v.v.v.v.v.v.v.v.v.v.v.v.v.v.v.v.v.v.v.v.v.v.v.v.v.v.v.v.",
"v.v.v.v.v.v.v.v.v.v.v.v.v.v.v.v.v.v.v.v.v.v.v.v.v.v.v.v.v.v.v.v.v.v.v.v.v.v.v.v.v.v.v.v.v.v.v.v.v.v.",
"v.v.v.v.v.v.v.v.v.v.v.v.v.v.v.v.v.v.v.v.v.v.v.v.v.v.v.v.v.v.v.v.v.v.v.v.v.v.v.v.v.v.v.v.v.v.v.v.v.v.",
"v.b.b.b.b.v.v.b.b.b.v.v.b.b.b.b.v.v.b.b.b.v.v.b.b.b.b.v.v.b.b.b.v.v.b.b.b.b.v.v.b.b.b.v.v.b.b.b.b.v.",
"6.s.d.y.p.6.w.d.t.a.e.6.s.s.y.p.6.w.d.t.a.e.6.s.s.i.a.6.w.d.t.s.e.6.s.a.y.p.6.w.d.t.a.w.6.s.s.y.p.6.",
"x.$.1.3.O.h.i.X.7.X.w.c.$.1.3.O.k.t.X.8.X.e.c.$.2.3.O.k.t.X.8.X.t.x.$.2.3.#.l.t.X.8.X.t.x.$.2.2.#.j.",
"f.1.0.e.q.8.5.4.r.9.4.i.1.0.w.0.9.3.6.r.9.5.i.1.0.w.w.8.3.6.t.8.5.i.1.e.w.0.8.3.4.t.9.4.i.<.w.0.9.8.",
"i.O.f.k.<.4.<.4.z.9.1.t.O.g.k.<.6.<.4.x.7.,.t.O.g.j.<.5.<.5.x.6.,.t.O.h.j.<.6.,.6.x.6.<.t.@.h.h.<.6.",
"| J { X.A { ` J #.} K ' J { X.A { ` _ O.` ` { J { X.Z { ` J #.J ` { J { X.A { ` _ #.J ` ' K O.X.A [ ",
",.,.,.$.#.,.<.$.,.@.L $.,.,.$.,.<.$.+.! !  .+.#.$.,.$.$.$.,.$.#.#.$.$.#...+.,.<.$.,.$.,.o.] $.#.$.,.",
"M E Q E c M =.Q E W %.-.;.:.>./ *.c h p r p h c *.Q E c b &.b c v g B x h v b E E E *.N ^ ~ b n b V ",
"t 6 9 5 5 0 6 9 5 a H e r p e 0 6 5 9 3 0 5 5 9 6 0 5 5 0 6 9 5 5 0 6 9 9 8 0 3 9 9 6 0 y D 9 6 0 3 ",
"7 0 7 9 9 5 0 5 5 g R i 5 5 0 6 4 8 2 1 6 9 9 7 0 7 9 9 7 0 7 9 9 7 0 6 3 9 < 1 5 5 0 6 j R e 0 7 0 ",
"0 5 9 7 5 9 5 9 9 f H 7 9 9 7 9 , 2 3 3 9 5 7 9 5 9 7 7 9 5 9 5 7 9 5 5 > 2 3 3 9 9 5 0 f H r 5 9 7 ",
"9 8 2 5 9 9 5 9 5 f T r 9 9 9 9 5 5 5 7 9 8 2 5 5 7 7 5 9 9 7 7 9 5 5 9 5 5 9 7 7 7 9 9 f F 7 5 9 5 ",
"7 8 < 8 9 7 9 5 5 f R r 5 5 0 7 9 9 5 9 7 8 < 6 9 5 5 5 5 0 7 9 9 5 9 5 7 9 7 9 7 5 9 4 a T 7 9 5 9 ",
"t 6 9 5 7 0 2 1 8 f H e 9 9 7 0 5 9 9 7 0 8 8 9 6 0 3 < 9 7 0 5 5 0 7 9 9 7 0 7 9 9 5 0 w H r 7 0 6 ",
"6 0 5 9 9 7 8 2 5 g R p 5 5 0 7 0 9 5 0 7 9 9 7 0 7 4 4 6 0 7 9 9 7 0 5 9 0 7 0 9 7 0 7 j R 7 0 7 t ",
"t 7 9 5 7 0 7 9 9 f G e 9 9 5 9 5 9 9 7 0 5 5 9 8 0 5 9 9 7 9 5 7 0 7 9 9 5 0 7 9 9 7 0 u D r 7 9 6 ",
"5 9 7 5 9 5 9 7 5 f H r 5 5 9 2 3 9 5 9 7 9 9 7 9 7 9 9 5 9 5 5 9 7 9 2 3 9 7 9 7 5 9 5 g H r 9 5 9 ",
"5 9 5 5 9 5 9 7 5 s T r 7 5 9 2 2 9 5 9 5 9 9 5 9 7 9 9 5 9 7 7 9 5 9 < 3 9 5 9 5 7 9 5 g R r 9 5 9 ",
"0 6 9 5 5 0 6 9 5 f H e 9 9 5 9 7 9 9 7 0 7 5 9 6 9 5 5 9 7 9 9 7 9 7 9 5 7 0 7 9 9 5 9 d H r 7 0 6 ",
"7 0 7 9 9 6 9 5 5 f R p 7 5 0 7 9 7 7 0 7 9 5 < 9 7 9 9 7 0 7 9 9 7 0 5 9 0 7 0 5 5 9 , j R 7 0 7 0 ",
"t 7 0 7 7 4 > 9 4 a H e 9 9 7 0 7 9 9 7 0 7 5 1 3 9 5 5 9 7 9 5 5 0 7 9 9 7 0 7 9 9 6 1 q H r 7 0 < ",
"7 9 7 9 9 6 3 2 > a R r 7 5 9 5 9 5 7 8 3 9 9 7 9 7 9 9 7 9 7 5 9 7 9 9 7 9 5 8 3 7 9 6 g R 7 9 5 5 ",
"9 5 9 7 9 9 9 5 8 f T r 5 5 9 9 5 < 2 2 2 5 9 5 5 9 5 7 9 9 9 9 9 9 9 9 8 , 2 < 2 9 5 5 f Y r 9 5 5 ",
"0 5 9 4 7 9 5 9 9 f H e 9 9 7 9 5 3 3 6 9 7 5 8 5 9 5 5 9 5 9 5 7 9 5 9 5 3 4 6 5 9 5 9 f F r 5 9 7 ",
"6 0 3 > 9 5 0 7 5 g R i 5 9 9 7 9 5 5 0 7 9 4 > 9 7 9 9 5 0 7 9 9 6 0 7 5 9 7 9 5 5 0 7 j Y < 0 7 0 ",
"t 7 9 2 6 0 6 9 3 d S e 9 9 6 0 7 9 9 7 0 5 8 3 6 0 5 8 4 6 0 5 5 0 6 9 9 8 0 7 9 9 6 0 u S 7 6 0 6 ",
"6 0 7 5 9 5 0 3 > d F i 5 5 0 7 9 9 7 0 7 9 9 5 0 7 9 3 > 9 5 7 9 7 9 7 9 9 7 0 5 5 9 7 g F e 0 7 0 ",
"9 5 9 5 7 9 5 5 8 f T e 9 5 5 9 5 9 9 5 9 5 7 9 5 9 5 8 5 5 9 5 7 9 5 9 5 7 9 5 9 9 5 9 f T r 5 9 7 ",
"9 7 9 7 9 9 5 9 5 f T r 9 5 5 9 4 5 9 5 9 5 7 9 5 9 9 7 9 5 9 5 9 9 5 9 6 8 9 7 9 9 5 9 f T r 7 9 5 ",
"7 9 7 9 9 7 9 5 5 g R r 7 7 9 7 1 2 5 9 5 9 9 7 9 7 9 9 5 9 5 5 9 7 0 5 , 3 7 9 7 5 9 5 j R 7 0 5 9 ",
"t 6 0 5 5 0 6 9 9 s H e 9 9 6 0 2 3 9 6 0 5 5 9 6 0 5 5 0 6 0 5 5 0 6 9 2 3 0 6 9 9 6 0 d H r 6 0 4 ",
"l z l l l l z l k m ) z l k z l l l l z k l l l z l l z l z l k z l z l k z l z l l z l C ( l z l k ",
"U P P P P I P I P P P P P P P P I I P P P P I P P I P I I P P P P I I I P P I I I P P P I P P P I P ",
". .     O . . . . O O . .   O O . . . o O . . . . O . . . . O . . . . @ . . . . @ . . . . @ . . . . ",
"+ + + + % $ + + X $ $ + + + $ % + + + # % + + + + % + + + + % + + + + = + + + + * + + + + % + X X + ",
"& & - % - = = - % = = & - % = - & - % = - % - & & - & - = % - % - = % - & - - % - & - - % - % = - % ",
"+ $ & + + + $ - + + + # - + + + + - + + + + - $ + + + - $ + + + = $ + + + & % + + + % % + + + % = + ",
"& - ; & - = - : = = = - : = = = = : = = = = : - = = = : - = = & ; - = = = ; - = - = - ; = - = - ; * ",
"% % % $ - = $ % $ - - $ $ $ = - $ $ $ = - % % % & ; $ $ $ % ; $ $ $ % ; $ $ $ $ ; % $ $ $ ; % % % % ",
"# # # # - % # # # = & # # # % = + + + % - # # # % - # # # % - # # # $ - $ # + $ - $ # # # - $ # # # ",
"% & - % & & & - % & & % - % % % % ; % % % % - % % & % - & % & % - = % & % - = % & % - - % & % = - % ",
"+ $ & + + + $ - + + + # - # + + # - + + + # - $ + + + - $ + + + = % + + + & % + + + % & + + + % & + "
};
